%TF.GenerationSoftware,KiCad,Pcbnew,9.0.3*%
%TF.CreationDate,2025-07-17T12:17:47-07:00*%
%TF.ProjectId,LES Keychain,4c455320-4b65-4796-9368-61696e2e6b69,rev?*%
%TF.SameCoordinates,Original*%
%TF.FileFunction,Soldermask,Top*%
%TF.FilePolarity,Negative*%
%FSLAX46Y46*%
G04 Gerber Fmt 4.6, Leading zero omitted, Abs format (unit mm)*
G04 Created by KiCad (PCBNEW 9.0.3) date 2025-07-17 12:17:47*
%MOMM*%
%LPD*%
G01*
G04 APERTURE LIST*
G04 Aperture macros list*
%AMRoundRect*
0 Rectangle with rounded corners*
0 $1 Rounding radius*
0 $2 $3 $4 $5 $6 $7 $8 $9 X,Y pos of 4 corners*
0 Add a 4 corners polygon primitive as box body*
4,1,4,$2,$3,$4,$5,$6,$7,$8,$9,$2,$3,0*
0 Add four circle primitives for the rounded corners*
1,1,$1+$1,$2,$3*
1,1,$1+$1,$4,$5*
1,1,$1+$1,$6,$7*
1,1,$1+$1,$8,$9*
0 Add four rect primitives between the rounded corners*
20,1,$1+$1,$2,$3,$4,$5,0*
20,1,$1+$1,$4,$5,$6,$7,0*
20,1,$1+$1,$6,$7,$8,$9,0*
20,1,$1+$1,$8,$9,$2,$3,0*%
G04 Aperture macros list end*
%ADD10C,0.000000*%
%ADD11RoundRect,0.160000X-0.160000X0.222500X-0.160000X-0.222500X0.160000X-0.222500X0.160000X0.222500X0*%
%ADD12C,2.100000*%
%ADD13RoundRect,0.200000X0.275000X-0.200000X0.275000X0.200000X-0.275000X0.200000X-0.275000X-0.200000X0*%
G04 APERTURE END LIST*
D10*
%TO.C,G\u002A\u002A\u002A*%
G36*
X136110422Y-101095715D02*
G01*
X136110422Y-101463404D01*
X136290462Y-101463404D01*
X136470501Y-101463404D01*
X136472468Y-101645411D01*
X136474435Y-101827417D01*
X136650926Y-101828022D01*
X136700631Y-101828241D01*
X136745533Y-101828531D01*
X136783509Y-101828870D01*
X136812436Y-101829238D01*
X136830191Y-101829613D01*
X136834771Y-101829857D01*
X136837199Y-101837582D01*
X136838924Y-101859494D01*
X136839934Y-101895090D01*
X136840214Y-101943864D01*
X136839753Y-102005312D01*
X136839631Y-102014689D01*
X136837137Y-102198292D01*
X137021556Y-102196699D01*
X137080488Y-102196333D01*
X137126227Y-102196417D01*
X137160287Y-102197019D01*
X137184176Y-102198204D01*
X137199407Y-102200037D01*
X137207491Y-102202585D01*
X137209734Y-102204900D01*
X137210789Y-102214755D01*
X137211730Y-102237151D01*
X137212512Y-102269925D01*
X137213092Y-102310910D01*
X137213427Y-102357942D01*
X137213491Y-102390584D01*
X137213491Y-102566473D01*
X137393659Y-102566473D01*
X137573827Y-102566473D01*
X137573827Y-102746641D01*
X137573827Y-102926809D01*
X137752524Y-102926809D01*
X137814384Y-102927050D01*
X137862615Y-102927807D01*
X137898293Y-102929131D01*
X137922488Y-102931071D01*
X137936275Y-102933679D01*
X137940046Y-102935634D01*
X137943089Y-102943560D01*
X137945433Y-102961236D01*
X137947130Y-102989735D01*
X137948229Y-103030130D01*
X137948781Y-103083493D01*
X137948871Y-103123155D01*
X137948871Y-103301852D01*
X138129039Y-103301852D01*
X138309206Y-103301852D01*
X138309206Y-103482020D01*
X138309206Y-103662188D01*
X138487904Y-103662188D01*
X138549763Y-103662429D01*
X138597995Y-103663187D01*
X138633672Y-103664510D01*
X138657867Y-103666451D01*
X138671654Y-103669059D01*
X138675425Y-103671013D01*
X138678606Y-103679288D01*
X138681022Y-103697661D01*
X138682727Y-103727201D01*
X138683776Y-103768975D01*
X138684225Y-103824051D01*
X138684250Y-103843827D01*
X138684250Y-104007817D01*
X138496728Y-104007817D01*
X138309206Y-104007817D01*
X138309206Y-103842356D01*
X138309206Y-103676896D01*
X138132190Y-103676896D01*
X138074430Y-103676746D01*
X138029712Y-103676233D01*
X137996372Y-103675264D01*
X137972746Y-103673747D01*
X137957171Y-103671587D01*
X137947984Y-103668692D01*
X137944668Y-103666390D01*
X137941249Y-103660440D01*
X137938626Y-103649175D01*
X137936705Y-103630933D01*
X137935393Y-103604049D01*
X137934597Y-103566859D01*
X137934223Y-103517702D01*
X137934163Y-103478869D01*
X137934163Y-103301852D01*
X137753995Y-103301852D01*
X137573827Y-103301852D01*
X137573827Y-103121685D01*
X137573827Y-102941517D01*
X137389982Y-102941517D01*
X137206138Y-102941517D01*
X137206138Y-102754121D01*
X137206138Y-102566726D01*
X137020454Y-102564761D01*
X136834771Y-102562796D01*
X136833309Y-102430428D01*
X136832803Y-102383913D01*
X136832327Y-102338944D01*
X136831917Y-102299044D01*
X136831610Y-102267735D01*
X136831471Y-102252229D01*
X136831094Y-102206399D01*
X136652765Y-102204430D01*
X136474435Y-102202460D01*
X136472468Y-102020454D01*
X136471640Y-101960682D01*
X136470549Y-101914351D01*
X136469121Y-101880193D01*
X136467277Y-101856942D01*
X136464942Y-101843332D01*
X136462039Y-101838097D01*
X136461438Y-101837945D01*
X136451710Y-101837841D01*
X136429521Y-101837829D01*
X136397120Y-101837903D01*
X136356752Y-101838057D01*
X136310666Y-101838286D01*
X136289133Y-101838408D01*
X136226455Y-101838383D01*
X136176647Y-101837507D01*
X136140209Y-101835798D01*
X136117644Y-101833278D01*
X136110804Y-101831298D01*
X136106106Y-101828234D01*
X136102500Y-101823509D01*
X136099842Y-101815328D01*
X136097986Y-101801897D01*
X136096790Y-101781421D01*
X136096109Y-101752105D01*
X136095800Y-101712154D01*
X136095717Y-101659773D01*
X136095715Y-101643313D01*
X136095715Y-101463404D01*
X135915547Y-101463404D01*
X135735379Y-101463404D01*
X135735379Y-101095715D01*
X135735379Y-100728025D01*
X135922901Y-100728025D01*
X136110422Y-100728025D01*
X136110422Y-101095715D01*
G37*
G36*
X138323914Y-96176027D02*
G01*
X138323703Y-96226280D01*
X138323110Y-96271296D01*
X138322194Y-96309106D01*
X138321014Y-96337741D01*
X138319629Y-96355232D01*
X138318399Y-96359878D01*
X138317288Y-96366991D01*
X138316273Y-96387365D01*
X138315375Y-96419550D01*
X138314616Y-96462100D01*
X138314016Y-96513566D01*
X138313598Y-96572501D01*
X138313383Y-96637457D01*
X138313380Y-96699991D01*
X138313876Y-97040098D01*
X138657170Y-97042009D01*
X139000463Y-97043920D01*
X139000463Y-97418891D01*
X139000463Y-97793862D01*
X138842356Y-97793862D01*
X138684250Y-97793862D01*
X138684250Y-97973901D01*
X138684250Y-98153941D01*
X138502244Y-98155908D01*
X138320237Y-98157874D01*
X138318272Y-98343558D01*
X138316308Y-98529241D01*
X138132589Y-98529241D01*
X137948871Y-98529241D01*
X137948871Y-98713086D01*
X137948871Y-98896931D01*
X137581181Y-98896931D01*
X137213491Y-98896931D01*
X137213491Y-99077099D01*
X137213491Y-99257266D01*
X136294267Y-99257266D01*
X135375043Y-99257266D01*
X135375043Y-99805124D01*
X135375043Y-100352982D01*
X135555211Y-100352982D01*
X135735379Y-100352982D01*
X135735379Y-100540503D01*
X135735379Y-100728025D01*
X135547857Y-100728025D01*
X135360336Y-100728025D01*
X135360336Y-100547993D01*
X135360336Y-100367960D01*
X135193037Y-100365986D01*
X135134905Y-100365496D01*
X135067011Y-100365241D01*
X134994298Y-100365221D01*
X134921709Y-100365434D01*
X134854187Y-100365879D01*
X134832701Y-100366089D01*
X134639664Y-100368166D01*
X134639664Y-100548095D01*
X134639664Y-100728025D01*
X134463774Y-100728025D01*
X134413853Y-100728206D01*
X134368455Y-100728713D01*
X134329777Y-100729495D01*
X134300011Y-100730498D01*
X134281353Y-100731672D01*
X134276253Y-100732489D01*
X134273605Y-100734699D01*
X134271387Y-100739915D01*
X134269561Y-100749326D01*
X134268091Y-100764120D01*
X134266939Y-100785487D01*
X134266068Y-100814616D01*
X134265440Y-100852694D01*
X134265019Y-100900911D01*
X134264767Y-100960457D01*
X134264647Y-101032518D01*
X134264620Y-101103855D01*
X134264620Y-101470758D01*
X134084581Y-101470758D01*
X133904542Y-101470758D01*
X133902575Y-101652764D01*
X133900608Y-101834771D01*
X133720440Y-101838448D01*
X133540272Y-101842125D01*
X133536595Y-102022293D01*
X133532918Y-102202460D01*
X133167067Y-102204368D01*
X132801216Y-102206275D01*
X132801216Y-102389264D01*
X132801120Y-102446520D01*
X132800762Y-102490756D01*
X132800039Y-102523662D01*
X132798844Y-102546924D01*
X132797074Y-102562231D01*
X132794623Y-102571271D01*
X132791387Y-102575730D01*
X132789584Y-102576717D01*
X132780498Y-102577442D01*
X132757885Y-102578130D01*
X132722923Y-102578772D01*
X132676791Y-102579359D01*
X132620670Y-102579881D01*
X132555739Y-102580328D01*
X132483177Y-102580691D01*
X132404163Y-102580960D01*
X132319877Y-102581127D01*
X132235615Y-102581181D01*
X131693278Y-102581181D01*
X131684714Y-102564635D01*
X131682601Y-102555934D01*
X131680878Y-102538231D01*
X131679529Y-102510724D01*
X131678541Y-102472611D01*
X131677899Y-102423089D01*
X131677589Y-102361355D01*
X131677596Y-102286607D01*
X131677906Y-102198042D01*
X131677956Y-102187753D01*
X131679762Y-101827417D01*
X131865446Y-101825452D01*
X132051129Y-101823488D01*
X132051129Y-101639769D01*
X132051129Y-101456050D01*
X132231297Y-101456050D01*
X132411465Y-101456050D01*
X132411465Y-101279559D01*
X132411465Y-101103068D01*
X131705501Y-101103068D01*
X130999537Y-101103068D01*
X130999537Y-101088361D01*
X132426172Y-101088361D01*
X132786508Y-101088361D01*
X133146844Y-101088361D01*
X133146844Y-100908193D01*
X133146844Y-100728025D01*
X132786508Y-100728025D01*
X132426172Y-100728025D01*
X132426172Y-100908193D01*
X132426172Y-101088361D01*
X130999537Y-101088361D01*
X130999537Y-100908193D01*
X130999537Y-100728025D01*
X130999537Y-100539033D01*
X130999537Y-100367689D01*
X133161552Y-100367689D01*
X133161552Y-100539033D01*
X133161789Y-100598847D01*
X133162542Y-100645184D01*
X133163873Y-100679265D01*
X133165842Y-100702313D01*
X133168510Y-100715550D01*
X133170595Y-100719420D01*
X133178072Y-100722534D01*
X133194302Y-100724873D01*
X133220552Y-100726494D01*
X133258092Y-100727457D01*
X133308188Y-100727820D01*
X133350763Y-100727751D01*
X133521887Y-100727038D01*
X133521887Y-100547364D01*
X133521887Y-100367689D01*
X133341719Y-100367689D01*
X133161552Y-100367689D01*
X130999537Y-100367689D01*
X130999537Y-100352982D01*
X131157643Y-100352982D01*
X131315750Y-100352982D01*
X133528802Y-100352982D01*
X133893034Y-100352982D01*
X134257267Y-100352982D01*
X134257267Y-100172814D01*
X134257267Y-99992646D01*
X133893731Y-99992646D01*
X133530196Y-99992646D01*
X133529499Y-100172814D01*
X133528802Y-100352982D01*
X131315750Y-100352982D01*
X131315750Y-100172814D01*
X131315750Y-99992646D01*
X131491807Y-99992646D01*
X131541193Y-99992405D01*
X131585538Y-99991729D01*
X131622774Y-99990686D01*
X131650831Y-99989346D01*
X131654872Y-99988969D01*
X134264609Y-99988969D01*
X134444783Y-99986880D01*
X134624956Y-99984791D01*
X134624956Y-99808551D01*
X134624956Y-99632310D01*
X134444788Y-99632310D01*
X134264620Y-99632310D01*
X134264615Y-99810639D01*
X134264609Y-99988969D01*
X131654872Y-99988969D01*
X131667639Y-99987778D01*
X131671580Y-99986632D01*
X131672657Y-99977898D01*
X131673717Y-99956526D01*
X131674705Y-99924589D01*
X131675566Y-99884155D01*
X131676243Y-99837296D01*
X131676598Y-99799177D01*
X131677900Y-99617736D01*
X132048883Y-99615831D01*
X132419866Y-99613925D01*
X132419103Y-99444174D01*
X132419082Y-99395091D01*
X132419442Y-99350500D01*
X132420132Y-99312654D01*
X132421106Y-99283803D01*
X132422314Y-99266197D01*
X132423043Y-99262168D01*
X132424505Y-99260355D01*
X132427928Y-99258729D01*
X132434072Y-99257280D01*
X132443693Y-99255998D01*
X132457548Y-99254873D01*
X132476397Y-99253894D01*
X132500995Y-99253052D01*
X132532100Y-99252336D01*
X132570471Y-99251737D01*
X132616864Y-99251244D01*
X132672038Y-99250847D01*
X132736749Y-99250536D01*
X132811755Y-99250301D01*
X132897814Y-99250132D01*
X132995683Y-99250019D01*
X133106120Y-99249951D01*
X133229882Y-99249919D01*
X133342506Y-99249913D01*
X134257267Y-99249913D01*
X134257267Y-98885900D01*
X134257267Y-98521887D01*
X134074615Y-98521887D01*
X133891964Y-98521887D01*
X133887094Y-98244916D01*
X133885958Y-98177718D01*
X133884916Y-98111054D01*
X133884000Y-98047342D01*
X133883241Y-97989004D01*
X133882671Y-97938459D01*
X133882322Y-97898128D01*
X133882223Y-97873550D01*
X133882223Y-97779154D01*
X134069619Y-97779154D01*
X134257014Y-97779154D01*
X134258979Y-97593471D01*
X134260944Y-97407788D01*
X134450304Y-97405825D01*
X134639664Y-97403862D01*
X134639664Y-97591508D01*
X134639664Y-97779154D01*
X134819832Y-97779154D01*
X135000000Y-97779154D01*
X135000000Y-98146844D01*
X135000000Y-98514533D01*
X135180168Y-98514533D01*
X135360336Y-98514533D01*
X135360336Y-98146844D01*
X135360336Y-97779154D01*
X135547857Y-97779154D01*
X135735379Y-97779154D01*
X135735379Y-97595175D01*
X135735379Y-97418818D01*
X137573415Y-97418818D01*
X137574087Y-97598986D01*
X137574759Y-97779154D01*
X137754461Y-97779154D01*
X137934163Y-97779154D01*
X137934163Y-97598986D01*
X137934163Y-97418818D01*
X137753789Y-97418818D01*
X137573415Y-97418818D01*
X135735379Y-97418818D01*
X135735379Y-97411196D01*
X136103070Y-97413169D01*
X136470762Y-97415141D01*
X136470762Y-97403849D01*
X137948871Y-97403849D01*
X138127200Y-97405955D01*
X138176751Y-97406607D01*
X138221120Y-97407318D01*
X138258289Y-97408045D01*
X138286238Y-97408746D01*
X138302947Y-97409377D01*
X138306883Y-97409763D01*
X138307287Y-97403233D01*
X138307703Y-97383979D01*
X138308105Y-97353985D01*
X138308471Y-97315235D01*
X138308778Y-97269714D01*
X138308944Y-97234973D01*
X138309653Y-97058482D01*
X138129262Y-97058482D01*
X137948871Y-97058482D01*
X137948871Y-97231166D01*
X137948871Y-97403849D01*
X136470762Y-97403849D01*
X136470760Y-97231166D01*
X136470760Y-97229458D01*
X136470758Y-97043775D01*
X136650798Y-97043775D01*
X136830837Y-97043775D01*
X136832804Y-96861768D01*
X136834771Y-96679762D01*
X137016649Y-96677795D01*
X137198527Y-96675829D01*
X137200494Y-96493951D01*
X137202461Y-96312072D01*
X137384467Y-96310106D01*
X137566473Y-96308139D01*
X137566473Y-96150161D01*
X137566473Y-95992183D01*
X137945194Y-95992183D01*
X138323914Y-95992183D01*
X138323914Y-96176027D01*
G37*
G36*
X136353421Y-111734501D02*
G01*
X136353421Y-111764994D01*
X136322929Y-111764994D01*
X136292437Y-111764994D01*
X136292437Y-111734501D01*
X136292437Y-111704009D01*
X136322929Y-111704009D01*
X136353421Y-111704009D01*
X136353421Y-111734501D01*
G37*
G36*
X136475390Y-112649267D02*
G01*
X136475390Y-112679760D01*
X136444898Y-112679760D01*
X136414405Y-112679760D01*
X136414405Y-112649267D01*
X136414405Y-112618775D01*
X136444898Y-112618775D01*
X136475390Y-112618775D01*
X136475390Y-112649267D01*
G37*
G36*
X136597359Y-112527519D02*
G01*
X136597359Y-112557791D01*
X136566866Y-112557791D01*
X136536374Y-112557791D01*
X136536374Y-112527299D01*
X136536374Y-112496806D01*
X136566866Y-112496806D01*
X136597359Y-112496806D01*
X136597359Y-112527519D01*
G37*
G36*
X137146218Y-111734501D02*
G01*
X137146218Y-111764994D01*
X137115726Y-111764994D01*
X137085234Y-111764994D01*
X137085234Y-111734501D01*
X137085234Y-111704009D01*
X137115726Y-111704009D01*
X137146218Y-111704009D01*
X137146218Y-111734501D01*
G37*
G36*
X137817046Y-112161392D02*
G01*
X137817046Y-112191884D01*
X137786554Y-112191884D01*
X137756062Y-112191884D01*
X137756062Y-112161392D01*
X137756062Y-112130900D01*
X137786554Y-112130900D01*
X137817046Y-112130900D01*
X137817046Y-112161392D01*
G37*
G36*
X138000000Y-111429579D02*
G01*
X138000000Y-111460072D01*
X137969507Y-111460072D01*
X137939015Y-111460072D01*
X137939015Y-111429579D01*
X137939015Y-111399087D01*
X137969507Y-111399087D01*
X138000000Y-111399087D01*
X138000000Y-111429579D01*
G37*
G36*
X138304922Y-112161392D02*
G01*
X138304922Y-112191884D01*
X138274429Y-112191884D01*
X138243937Y-112191884D01*
X138243937Y-112161392D01*
X138243937Y-112130900D01*
X138274429Y-112130900D01*
X138304922Y-112130900D01*
X138304922Y-112161392D01*
G37*
G36*
X139097719Y-112588283D02*
G01*
X139097719Y-112618775D01*
X139067227Y-112618775D01*
X139036734Y-112618775D01*
X139036734Y-112588283D01*
X139036734Y-112557791D01*
X139067227Y-112557791D01*
X139097719Y-112557791D01*
X139097719Y-112588283D01*
G37*
G36*
X139219688Y-113503049D02*
G01*
X139219688Y-113533541D01*
X139128211Y-113533541D01*
X139036734Y-113533541D01*
X139036734Y-113503049D01*
X139036734Y-113472557D01*
X139128211Y-113472557D01*
X139219688Y-113472557D01*
X139219688Y-113503049D01*
G37*
G36*
X139951500Y-112588283D02*
G01*
X139951500Y-112618775D01*
X139921008Y-112618775D01*
X139890516Y-112618775D01*
X139890516Y-112588283D01*
X139890516Y-112557791D01*
X139921008Y-112557791D01*
X139951500Y-112557791D01*
X139951500Y-112588283D01*
G37*
G36*
X136597359Y-112740744D02*
G01*
X136597359Y-112801728D01*
X136566866Y-112801728D01*
X136536374Y-112801728D01*
X136536374Y-112832221D01*
X136536374Y-112862713D01*
X136475390Y-112862713D01*
X136414405Y-112862713D01*
X136414405Y-112832221D01*
X136414405Y-112801728D01*
X136444898Y-112801728D01*
X136475390Y-112801728D01*
X136475390Y-112771236D01*
X136475390Y-112740744D01*
X136505882Y-112740744D01*
X136536374Y-112740744D01*
X136536374Y-112710252D01*
X136536374Y-112679760D01*
X136566866Y-112679760D01*
X136597359Y-112679760D01*
X136597359Y-112740744D01*
G37*
G36*
X136048499Y-111978439D02*
G01*
X136048499Y-112008931D01*
X136139976Y-112008931D01*
X136231452Y-112008931D01*
X136231452Y-112069916D01*
X136231452Y-112130900D01*
X136200960Y-112130900D01*
X136170468Y-112130900D01*
X136170468Y-112161392D01*
X136170468Y-112191884D01*
X136109483Y-112191884D01*
X136048499Y-112191884D01*
X136048499Y-112161392D01*
X136048499Y-112130900D01*
X136018007Y-112130900D01*
X135987515Y-112130900D01*
X135987515Y-112100408D01*
X135987515Y-112069916D01*
X135957022Y-112069916D01*
X135926530Y-112069916D01*
X135926530Y-112039423D01*
X135926530Y-112008931D01*
X135957022Y-112008931D01*
X135987515Y-112008931D01*
X135987515Y-111978439D01*
X135987515Y-111947947D01*
X136018007Y-111947947D01*
X136048499Y-111947947D01*
X136048499Y-111978439D01*
G37*
G36*
X140134453Y-112801728D02*
G01*
X140134453Y-112862713D01*
X140103961Y-112862713D01*
X140073469Y-112862713D01*
X140073469Y-112893205D01*
X140073469Y-112923697D01*
X140042977Y-112923697D01*
X140012485Y-112923697D01*
X140012485Y-112954189D01*
X140012485Y-112984682D01*
X139981992Y-112984682D01*
X139951500Y-112984682D01*
X139951500Y-113015174D01*
X139951500Y-113045666D01*
X139921008Y-113045666D01*
X139890516Y-113045666D01*
X139890516Y-112984347D01*
X139890516Y-112923697D01*
X139921008Y-112923697D01*
X139951500Y-112923697D01*
X139951500Y-112862713D01*
X139951500Y-112801728D01*
X140012485Y-112801728D01*
X140073469Y-112801728D01*
X140073469Y-112771236D01*
X140073469Y-112740744D01*
X140103961Y-112740744D01*
X140134453Y-112740744D01*
X140134453Y-112801728D01*
G37*
G36*
X136048499Y-112344345D02*
G01*
X136048499Y-112374838D01*
X136018007Y-112374838D01*
X135987515Y-112374838D01*
X135987515Y-112405330D01*
X135987515Y-112435822D01*
X136018007Y-112435822D01*
X136048499Y-112435822D01*
X136048499Y-112466314D01*
X136048499Y-112496806D01*
X136109483Y-112496806D01*
X136170468Y-112496806D01*
X136170468Y-112557791D01*
X136170468Y-112618775D01*
X136139976Y-112618775D01*
X136109483Y-112618775D01*
X136109483Y-112649267D01*
X136109483Y-112679760D01*
X136078991Y-112679760D01*
X136048499Y-112679760D01*
X136048499Y-112618775D01*
X136048499Y-112557791D01*
X136018007Y-112557791D01*
X135987515Y-112557791D01*
X135987515Y-112527299D01*
X135987515Y-112496806D01*
X135957022Y-112496806D01*
X135926530Y-112496806D01*
X135926530Y-112435822D01*
X135926530Y-112374838D01*
X135957022Y-112374838D01*
X135987515Y-112374838D01*
X135987515Y-112344345D01*
X135987515Y-112313853D01*
X136018007Y-112313853D01*
X136048499Y-112313853D01*
X136048499Y-112344345D01*
G37*
G36*
X138121968Y-111551548D02*
G01*
X138121968Y-111582040D01*
X138182953Y-111582040D01*
X138243937Y-111582040D01*
X138243937Y-111612533D01*
X138243937Y-111643025D01*
X138274429Y-111643025D01*
X138304922Y-111643025D01*
X138304922Y-111673517D01*
X138304922Y-111704009D01*
X138335414Y-111704009D01*
X138365906Y-111704009D01*
X138365906Y-111734338D01*
X138365906Y-111764668D01*
X138275954Y-111766355D01*
X138186002Y-111768043D01*
X138184156Y-111796689D01*
X138182311Y-111825336D01*
X138153664Y-111827182D01*
X138125018Y-111829027D01*
X138123172Y-111857674D01*
X138121326Y-111886320D01*
X138092680Y-111888166D01*
X138064033Y-111890012D01*
X138064033Y-112130900D01*
X138064033Y-112371788D01*
X138121968Y-112371788D01*
X138179904Y-112371788D01*
X138181649Y-112312329D01*
X138183394Y-112252869D01*
X138244158Y-112252869D01*
X138304922Y-112252869D01*
X138304922Y-112283027D01*
X138304922Y-112313185D01*
X138275954Y-112315044D01*
X138246986Y-112316902D01*
X138245141Y-112345549D01*
X138243295Y-112374196D01*
X138214649Y-112376041D01*
X138186002Y-112377887D01*
X138184156Y-112406533D01*
X138182311Y-112435180D01*
X138153664Y-112437026D01*
X138125018Y-112438871D01*
X138123172Y-112467518D01*
X138121326Y-112496164D01*
X138092680Y-112498010D01*
X138064033Y-112499856D01*
X138062418Y-112680954D01*
X138060804Y-112862052D01*
X138031926Y-112863907D01*
X138003049Y-112865762D01*
X138003049Y-113320096D01*
X138003049Y-113774429D01*
X138030492Y-113774429D01*
X138057935Y-113774429D01*
X138059780Y-113745783D01*
X138061626Y-113717136D01*
X138090273Y-113715291D01*
X138118919Y-113713445D01*
X138120765Y-113684798D01*
X138122610Y-113656152D01*
X138151257Y-113654306D01*
X138179904Y-113652461D01*
X138181749Y-113623814D01*
X138183595Y-113595168D01*
X138212241Y-113593322D01*
X138240888Y-113591476D01*
X138242734Y-113562830D01*
X138244579Y-113534183D01*
X138273226Y-113532338D01*
X138301872Y-113530492D01*
X138303718Y-113501845D01*
X138305564Y-113473199D01*
X138334210Y-113471353D01*
X138362857Y-113469507D01*
X138364702Y-113440861D01*
X138366548Y-113412214D01*
X138395195Y-113410369D01*
X138423841Y-113408523D01*
X138425691Y-113379772D01*
X138427541Y-113351022D01*
X138486675Y-113349280D01*
X138545810Y-113347539D01*
X138547656Y-113318892D01*
X138549501Y-113290246D01*
X138578148Y-113288400D01*
X138606794Y-113286554D01*
X138608644Y-113257804D01*
X138610494Y-113229053D01*
X138669629Y-113227311D01*
X138728763Y-113225570D01*
X138730609Y-113196923D01*
X138732454Y-113168277D01*
X138761101Y-113166431D01*
X138789748Y-113164586D01*
X138791597Y-113135835D01*
X138793447Y-113107084D01*
X138852582Y-113105343D01*
X138911716Y-113103601D01*
X138913562Y-113074955D01*
X138915408Y-113046308D01*
X138944054Y-113044462D01*
X138972701Y-113042617D01*
X138974103Y-112968053D01*
X139037319Y-112968053D01*
X139042114Y-112979492D01*
X139054122Y-112983711D01*
X139068695Y-112983510D01*
X139094670Y-112981632D01*
X139094670Y-112954189D01*
X139094670Y-112926746D01*
X139067227Y-112926746D01*
X139050292Y-112927295D01*
X139041990Y-112930587D01*
X139038759Y-112939094D01*
X139037829Y-112947147D01*
X139037319Y-112968053D01*
X138974103Y-112968053D01*
X138974386Y-112952992D01*
X138976072Y-112863368D01*
X139004879Y-112861516D01*
X139033685Y-112859664D01*
X139035431Y-112800204D01*
X139037176Y-112740744D01*
X139158924Y-112740744D01*
X139280672Y-112740744D01*
X139280672Y-112771236D01*
X139280672Y-112801728D01*
X139188974Y-112801728D01*
X139097277Y-112801728D01*
X139099023Y-112861188D01*
X139100768Y-112920648D01*
X139158703Y-112920648D01*
X139216638Y-112920648D01*
X139218490Y-112891841D01*
X139220343Y-112863035D01*
X139309967Y-112861349D01*
X139399591Y-112859664D01*
X139401333Y-112800529D01*
X139403075Y-112741395D01*
X139431825Y-112739545D01*
X139460576Y-112737695D01*
X139462317Y-112678560D01*
X139464059Y-112619426D01*
X139492810Y-112617576D01*
X139521560Y-112615726D01*
X139523410Y-112586975D01*
X139525260Y-112558225D01*
X139584395Y-112556483D01*
X139643529Y-112554742D01*
X139645388Y-112525774D01*
X139647247Y-112496806D01*
X139738389Y-112496806D01*
X139829531Y-112496806D01*
X139829531Y-112527136D01*
X139829531Y-112557465D01*
X139739579Y-112559152D01*
X139649627Y-112560840D01*
X139647782Y-112589487D01*
X139645936Y-112618133D01*
X139617290Y-112619979D01*
X139588643Y-112621824D01*
X139586797Y-112650471D01*
X139584952Y-112679118D01*
X139556305Y-112680963D01*
X139527659Y-112682809D01*
X139525813Y-112711455D01*
X139523967Y-112740102D01*
X139495321Y-112741948D01*
X139466674Y-112743793D01*
X139466674Y-112771236D01*
X139466674Y-112798679D01*
X139524609Y-112798679D01*
X139582545Y-112798679D01*
X139584403Y-112769712D01*
X139586262Y-112740744D01*
X139707897Y-112740744D01*
X139829531Y-112740744D01*
X139829531Y-112771073D01*
X139829531Y-112801402D01*
X139739579Y-112803090D01*
X139649627Y-112804778D01*
X139647782Y-112833424D01*
X139645936Y-112862071D01*
X139617290Y-112863916D01*
X139588643Y-112865762D01*
X139588643Y-112893205D01*
X139588643Y-112920648D01*
X139677070Y-112920648D01*
X139765498Y-112920648D01*
X139767357Y-112891680D01*
X139769215Y-112862713D01*
X139829866Y-112862713D01*
X139890516Y-112862713D01*
X139890516Y-112893205D01*
X139890516Y-112923029D01*
X139861548Y-112924888D01*
X139832581Y-112926746D01*
X139830722Y-112955714D01*
X139828863Y-112984682D01*
X139677070Y-112984682D01*
X139525278Y-112984682D01*
X139523419Y-112955714D01*
X139521560Y-112926746D01*
X139402641Y-112926746D01*
X139283721Y-112926746D01*
X139281871Y-112955497D01*
X139280021Y-112984248D01*
X139220887Y-112985989D01*
X139161752Y-112987731D01*
X139159902Y-113016481D01*
X139158053Y-113045232D01*
X139098918Y-113046974D01*
X139039784Y-113048715D01*
X139037938Y-113077362D01*
X139036092Y-113106008D01*
X139007446Y-113107854D01*
X138978799Y-113109700D01*
X138976949Y-113138450D01*
X138975099Y-113167201D01*
X138915965Y-113168942D01*
X138856830Y-113170684D01*
X138854985Y-113199330D01*
X138853139Y-113227977D01*
X138824493Y-113229823D01*
X138795846Y-113231668D01*
X138794000Y-113260315D01*
X138792155Y-113288961D01*
X138763508Y-113290807D01*
X138734862Y-113292653D01*
X138734862Y-113320096D01*
X138734862Y-113347539D01*
X138793996Y-113349280D01*
X138853131Y-113351022D01*
X138854980Y-113379772D01*
X138856830Y-113408523D01*
X138946782Y-113410211D01*
X139036734Y-113411898D01*
X139036734Y-113442228D01*
X139036734Y-113472557D01*
X138915100Y-113472557D01*
X138793465Y-113472557D01*
X138791606Y-113443589D01*
X138789748Y-113414622D01*
X138730613Y-113412880D01*
X138671479Y-113411138D01*
X138669629Y-113382388D01*
X138667779Y-113353637D01*
X138640336Y-113353637D01*
X138612893Y-113353637D01*
X138611043Y-113382388D01*
X138609193Y-113411138D01*
X138550059Y-113412880D01*
X138490924Y-113414622D01*
X138489078Y-113443268D01*
X138487233Y-113471915D01*
X138458586Y-113473760D01*
X138429940Y-113475606D01*
X138428094Y-113504252D01*
X138426248Y-113532899D01*
X138397602Y-113534745D01*
X138368955Y-113536590D01*
X138367110Y-113565237D01*
X138365264Y-113593883D01*
X138336617Y-113595729D01*
X138307971Y-113597575D01*
X138306125Y-113626221D01*
X138304280Y-113654868D01*
X138275633Y-113656713D01*
X138246986Y-113658559D01*
X138245141Y-113687206D01*
X138243295Y-113715852D01*
X138214649Y-113717698D01*
X138186002Y-113719543D01*
X138184156Y-113748190D01*
X138182311Y-113776837D01*
X138153664Y-113778682D01*
X138125018Y-113780528D01*
X138123172Y-113809174D01*
X138121326Y-113837821D01*
X138092680Y-113839667D01*
X138064033Y-113841512D01*
X138062188Y-113870159D01*
X138060342Y-113898805D01*
X138031695Y-113900651D01*
X138003049Y-113902497D01*
X138003049Y-113929940D01*
X138003049Y-113957383D01*
X138032016Y-113959241D01*
X138060984Y-113961100D01*
X138060984Y-113990924D01*
X138060984Y-114020748D01*
X138032016Y-114022607D01*
X138003049Y-114024465D01*
X138003049Y-114295846D01*
X138003049Y-114567227D01*
X138032016Y-114569085D01*
X138060984Y-114570944D01*
X138060984Y-114600768D01*
X138060984Y-114630592D01*
X138032016Y-114632451D01*
X138003049Y-114634309D01*
X138003049Y-114997167D01*
X138003049Y-115360024D01*
X138032016Y-115361882D01*
X138060984Y-115363741D01*
X138060984Y-115393565D01*
X138060984Y-115423389D01*
X138032016Y-115425248D01*
X138003049Y-115427107D01*
X138001418Y-115578043D01*
X137999787Y-115728979D01*
X137969423Y-115728979D01*
X137939059Y-115728979D01*
X137937513Y-114907215D01*
X137935966Y-114085450D01*
X137906998Y-114083591D01*
X137878031Y-114081732D01*
X137878031Y-114051908D01*
X137878031Y-114022085D01*
X137906998Y-114020226D01*
X137935966Y-114018367D01*
X137935966Y-113746986D01*
X137935966Y-113475606D01*
X137907215Y-113473756D01*
X137878465Y-113471906D01*
X137876723Y-113412772D01*
X137874982Y-113353637D01*
X137846335Y-113351791D01*
X137817689Y-113349946D01*
X137815843Y-113321299D01*
X137813997Y-113292653D01*
X137785247Y-113290803D01*
X137756496Y-113288953D01*
X137754754Y-113229818D01*
X137753013Y-113170684D01*
X137724366Y-113168838D01*
X137695720Y-113166993D01*
X137693874Y-113138346D01*
X137692028Y-113109700D01*
X137663278Y-113107850D01*
X137634527Y-113106000D01*
X137632786Y-113046865D01*
X137631044Y-112987731D01*
X137602398Y-112985885D01*
X137573751Y-112984039D01*
X137571905Y-112955393D01*
X137570060Y-112926746D01*
X137541309Y-112924896D01*
X137512558Y-112923047D01*
X137510817Y-112863912D01*
X137509075Y-112804778D01*
X137480429Y-112802932D01*
X137451782Y-112801086D01*
X137449937Y-112772440D01*
X137448091Y-112743793D01*
X137419444Y-112741948D01*
X137390798Y-112740102D01*
X137388952Y-112711455D01*
X137387106Y-112682809D01*
X137358356Y-112680959D01*
X137329605Y-112679109D01*
X137327864Y-112619975D01*
X137326122Y-112560840D01*
X137266988Y-112559098D01*
X137207853Y-112557357D01*
X137206003Y-112528606D01*
X137204153Y-112499856D01*
X137175507Y-112498010D01*
X137146860Y-112496164D01*
X137145015Y-112467518D01*
X137143169Y-112438871D01*
X137085234Y-112438871D01*
X137027299Y-112438871D01*
X137025453Y-112467518D01*
X137023607Y-112496164D01*
X136994961Y-112498010D01*
X136966314Y-112499856D01*
X136964462Y-112528662D01*
X136962610Y-112557468D01*
X136872985Y-112559154D01*
X136783361Y-112560840D01*
X136781502Y-112589808D01*
X136779643Y-112618775D01*
X136688501Y-112618775D01*
X136597359Y-112618775D01*
X136597359Y-112588283D01*
X136597359Y-112558232D01*
X136656818Y-112556487D01*
X136716278Y-112554742D01*
X136718130Y-112525935D01*
X136719982Y-112497129D01*
X136809607Y-112495443D01*
X136899231Y-112493757D01*
X136899231Y-112435822D01*
X136899231Y-112377887D01*
X136809607Y-112376201D01*
X136719982Y-112374515D01*
X136718130Y-112345709D01*
X136716278Y-112316902D01*
X136688835Y-112316902D01*
X136661392Y-112316902D01*
X136659533Y-112345870D01*
X136657675Y-112374838D01*
X136414071Y-112374838D01*
X136170468Y-112374838D01*
X136170468Y-112344436D01*
X136170468Y-112314035D01*
X136351896Y-112312419D01*
X136533325Y-112310804D01*
X136535171Y-112282157D01*
X136537016Y-112253511D01*
X136565663Y-112251665D01*
X136594309Y-112249820D01*
X136594309Y-112191884D01*
X136594309Y-112133949D01*
X136565663Y-112132104D01*
X136537016Y-112130258D01*
X136535171Y-112101611D01*
X136533325Y-112072965D01*
X136504678Y-112071119D01*
X136476032Y-112069274D01*
X136474186Y-112040627D01*
X136472341Y-112011980D01*
X136413206Y-112010239D01*
X136354072Y-112008497D01*
X136352222Y-111979747D01*
X136350372Y-111950996D01*
X136290912Y-111949251D01*
X136231452Y-111947505D01*
X136231452Y-111917234D01*
X136231452Y-111886962D01*
X136322595Y-111886962D01*
X136413737Y-111886962D01*
X136415596Y-111915930D01*
X136417455Y-111944898D01*
X136476589Y-111946639D01*
X136535724Y-111948381D01*
X136537574Y-111977131D01*
X136539423Y-112005882D01*
X136568070Y-112007728D01*
X136596717Y-112009573D01*
X136598562Y-112038220D01*
X136600408Y-112066866D01*
X136629214Y-112068719D01*
X136658021Y-112070571D01*
X136659706Y-112160195D01*
X136661392Y-112249820D01*
X136720527Y-112251561D01*
X136779661Y-112253303D01*
X136781511Y-112282053D01*
X136783361Y-112310804D01*
X136872985Y-112312490D01*
X136962610Y-112314176D01*
X136964462Y-112342982D01*
X136966314Y-112371788D01*
X137085234Y-112371788D01*
X137204153Y-112371788D01*
X137205999Y-112343142D01*
X137207845Y-112314495D01*
X137236491Y-112312650D01*
X137265138Y-112310804D01*
X137265138Y-112283361D01*
X137265138Y-112255918D01*
X137236387Y-112254068D01*
X137207636Y-112252218D01*
X137205895Y-112193084D01*
X137204153Y-112133949D01*
X137175507Y-112132104D01*
X137146860Y-112130258D01*
X137145015Y-112101611D01*
X137143169Y-112072965D01*
X137114522Y-112071119D01*
X137085876Y-112069274D01*
X137084030Y-112040627D01*
X137082185Y-112011980D01*
X136992233Y-112010293D01*
X136902281Y-112008605D01*
X136902281Y-112039260D01*
X136902281Y-112069916D01*
X136871788Y-112069916D01*
X136841296Y-112069916D01*
X136841296Y-111992303D01*
X137146802Y-111992303D01*
X137151598Y-112003742D01*
X137163606Y-112007961D01*
X137178179Y-112007760D01*
X137204153Y-112005882D01*
X137204153Y-111978439D01*
X137204153Y-111950996D01*
X137176710Y-111950996D01*
X137159776Y-111951544D01*
X137151474Y-111954836D01*
X137148243Y-111963344D01*
X137147313Y-111971397D01*
X137146802Y-111992303D01*
X136841296Y-111992303D01*
X136841296Y-111978439D01*
X136841296Y-111886962D01*
X136932773Y-111886962D01*
X137024249Y-111886962D01*
X137024249Y-111917675D01*
X137024249Y-111948389D01*
X137083709Y-111946643D01*
X137143169Y-111944898D01*
X137143169Y-111917455D01*
X137143169Y-111890012D01*
X137114201Y-111888153D01*
X137085234Y-111886294D01*
X137085234Y-111856136D01*
X137085234Y-111825978D01*
X137145884Y-111825978D01*
X137206534Y-111825978D01*
X137208393Y-111854946D01*
X137210252Y-111883913D01*
X137239058Y-111885765D01*
X137267865Y-111887618D01*
X137269550Y-111977242D01*
X137271236Y-112066866D01*
X137300204Y-112068725D01*
X137329171Y-112070584D01*
X137329171Y-112222377D01*
X137329171Y-112374169D01*
X137300204Y-112376028D01*
X137271236Y-112377887D01*
X137271236Y-112435822D01*
X137271236Y-112493757D01*
X137299883Y-112495603D01*
X137328529Y-112497448D01*
X137330375Y-112526095D01*
X137332221Y-112554742D01*
X137360867Y-112556587D01*
X137389514Y-112558433D01*
X137391359Y-112587079D01*
X137393205Y-112615726D01*
X137421851Y-112617572D01*
X137450498Y-112619417D01*
X137452344Y-112648064D01*
X137454189Y-112676710D01*
X137482940Y-112678560D01*
X137511691Y-112680410D01*
X137513432Y-112739545D01*
X137515174Y-112798679D01*
X137543820Y-112800525D01*
X137572467Y-112802370D01*
X137574312Y-112831017D01*
X137576158Y-112859664D01*
X137604909Y-112861513D01*
X137633659Y-112863363D01*
X137635401Y-112922498D01*
X137637143Y-112981632D01*
X137665789Y-112983478D01*
X137694436Y-112985324D01*
X137696281Y-113013970D01*
X137698127Y-113042617D01*
X137726773Y-113044462D01*
X137755420Y-113046308D01*
X137757266Y-113074955D01*
X137759111Y-113103601D01*
X137787862Y-113105451D01*
X137816613Y-113107301D01*
X137818354Y-113166435D01*
X137820096Y-113225570D01*
X137848742Y-113227416D01*
X137877389Y-113229261D01*
X137879234Y-113257908D01*
X137881080Y-113286554D01*
X137908523Y-113286554D01*
X137935966Y-113286554D01*
X137937560Y-113044473D01*
X137939155Y-112802391D01*
X137968053Y-112800535D01*
X137996950Y-112798679D01*
X137996950Y-112557791D01*
X137996950Y-112316902D01*
X137968304Y-112315057D01*
X137939657Y-112313211D01*
X137937812Y-112284565D01*
X137935966Y-112255918D01*
X137876506Y-112254173D01*
X137817046Y-112252427D01*
X137817046Y-112222156D01*
X137817046Y-112191884D01*
X137877697Y-112191884D01*
X137938347Y-112191884D01*
X137940206Y-112220852D01*
X137942064Y-112249820D01*
X137969507Y-112249820D01*
X137996950Y-112249820D01*
X137996950Y-112100408D01*
X137996950Y-111950996D01*
X137968200Y-111949146D01*
X137939449Y-111947296D01*
X137937708Y-111888162D01*
X137935966Y-111829027D01*
X137906998Y-111827169D01*
X137878031Y-111825310D01*
X137878031Y-111764660D01*
X137878031Y-111760928D01*
X137878031Y-111704009D01*
X137939015Y-111704009D01*
X137939015Y-111760928D01*
X137939455Y-111786216D01*
X137940633Y-111806744D01*
X137942341Y-111819562D01*
X137943368Y-111822199D01*
X137951715Y-111824542D01*
X137967149Y-111825021D01*
X137972335Y-111824740D01*
X137996950Y-111822929D01*
X137998696Y-111763469D01*
X138000441Y-111704009D01*
X137969728Y-111704009D01*
X137939015Y-111704009D01*
X137878031Y-111704009D01*
X137817046Y-111704009D01*
X137756062Y-111704009D01*
X137756062Y-111699944D01*
X137756062Y-111673517D01*
X137756062Y-111643025D01*
X137817046Y-111643025D01*
X137878031Y-111643025D01*
X138060984Y-111643025D01*
X138060984Y-111699944D01*
X138061416Y-111725220D01*
X138062574Y-111745727D01*
X138064252Y-111758517D01*
X138065262Y-111761141D01*
X138072890Y-111762853D01*
X138089703Y-111763835D01*
X138112705Y-111763956D01*
X138124722Y-111763682D01*
X138179904Y-111761944D01*
X138181649Y-111702485D01*
X138183394Y-111643025D01*
X138122189Y-111643025D01*
X138060984Y-111643025D01*
X137878031Y-111643025D01*
X137878031Y-111612533D01*
X137878031Y-111582040D01*
X137939015Y-111582040D01*
X138000000Y-111582040D01*
X138000000Y-111551548D01*
X138000000Y-111521056D01*
X138060984Y-111521056D01*
X138121968Y-111521056D01*
X138121968Y-111551548D01*
G37*
G36*
X135254398Y-89168995D02*
G01*
X135254398Y-89227094D01*
X135196299Y-89227094D01*
X135138200Y-89227094D01*
X135138200Y-89168995D01*
X135138200Y-89110896D01*
X135196299Y-89110896D01*
X135254398Y-89110896D01*
X135254398Y-89168995D01*
G37*
G36*
X134462057Y-89318894D02*
G01*
X134462134Y-89319525D01*
X134460124Y-89322089D01*
X134459493Y-89322166D01*
X134456929Y-89320156D01*
X134456852Y-89319525D01*
X134458862Y-89316961D01*
X134459493Y-89316884D01*
X134462057Y-89318894D01*
G37*
G36*
X136168143Y-89781679D02*
G01*
X136168143Y-89839779D01*
X136110044Y-89839779D01*
X136051945Y-89839779D01*
X136051945Y-89781679D01*
X136051945Y-89723580D01*
X136110044Y-89723580D01*
X136168143Y-89723580D01*
X136168143Y-89781679D01*
G37*
G36*
X136939281Y-90547535D02*
G01*
X136939281Y-90605635D01*
X136881181Y-90605635D01*
X136823082Y-90605635D01*
X136823082Y-90547535D01*
X136823082Y-90489436D01*
X136881181Y-90489436D01*
X136939281Y-90489436D01*
X136939281Y-90547535D01*
G37*
G36*
X134213891Y-90547535D02*
G01*
X134213891Y-90605635D01*
X134155792Y-90605635D01*
X134097692Y-90605635D01*
X134097692Y-90547535D01*
X134097692Y-90489436D01*
X134155792Y-90489436D01*
X134213891Y-90489436D01*
X134213891Y-90547535D01*
G37*
G36*
X136073072Y-91746495D02*
G01*
X136073072Y-91804595D01*
X136014972Y-91804595D01*
X135956873Y-91804595D01*
X135956873Y-91746495D01*
X135956873Y-91688396D01*
X136014972Y-91688396D01*
X136073072Y-91688396D01*
X136073072Y-91746495D01*
G37*
G36*
X135006155Y-91788750D02*
G01*
X135006155Y-91846849D01*
X134948056Y-91846849D01*
X134889957Y-91846849D01*
X134889957Y-91788750D01*
X134889957Y-91730650D01*
X134948056Y-91730650D01*
X135006155Y-91730650D01*
X135006155Y-91788750D01*
G37*
G36*
X136701602Y-89946923D02*
G01*
X136701533Y-89966046D01*
X136701300Y-89980532D01*
X136700859Y-89991024D01*
X136700171Y-89998165D01*
X136699192Y-90002599D01*
X136697881Y-90004970D01*
X136697829Y-90005023D01*
X136695519Y-90006346D01*
X136691167Y-90007336D01*
X136684130Y-90008034D01*
X136673765Y-90008482D01*
X136659429Y-90008722D01*
X136640478Y-90008795D01*
X136639729Y-90008795D01*
X136585403Y-90008795D01*
X136585403Y-89950696D01*
X136585403Y-89892597D01*
X136643502Y-89892597D01*
X136701602Y-89892597D01*
X136701602Y-89946923D01*
G37*
G36*
X134562487Y-90093304D02*
G01*
X134562487Y-90151403D01*
X134508161Y-90151403D01*
X134489038Y-90151334D01*
X134474552Y-90151101D01*
X134464060Y-90150661D01*
X134456919Y-90149972D01*
X134452485Y-90148993D01*
X134450114Y-90147682D01*
X134450061Y-90147630D01*
X134448738Y-90145320D01*
X134447748Y-90140968D01*
X134447050Y-90133932D01*
X134446602Y-90123567D01*
X134446362Y-90109230D01*
X134446289Y-90090280D01*
X134446289Y-90089531D01*
X134446289Y-90035204D01*
X134504388Y-90035204D01*
X134562487Y-90035204D01*
X134562487Y-90093304D01*
G37*
G36*
X135576586Y-90148762D02*
G01*
X135576586Y-90262320D01*
X135634685Y-90262320D01*
X135692785Y-90262320D01*
X135692785Y-90317778D01*
X135692785Y-90373237D01*
X135748243Y-90373237D01*
X135803702Y-90373237D01*
X135803702Y-90431336D01*
X135803702Y-90489436D01*
X135917260Y-90489436D01*
X136030818Y-90489436D01*
X136030818Y-90547535D01*
X136030818Y-90605635D01*
X135914619Y-90605635D01*
X135798420Y-90605635D01*
X135798420Y-90550176D01*
X135798420Y-90494718D01*
X135742961Y-90494718D01*
X135687503Y-90494718D01*
X135687503Y-90436618D01*
X135687503Y-90378519D01*
X135629404Y-90378519D01*
X135571304Y-90378519D01*
X135571304Y-90323060D01*
X135571304Y-90267602D01*
X135515846Y-90267602D01*
X135460387Y-90267602D01*
X135460387Y-90151403D01*
X135460387Y-90035204D01*
X135518487Y-90035204D01*
X135576586Y-90035204D01*
X135576586Y-90148762D01*
G37*
G36*
X136485049Y-89195404D02*
G01*
X136543149Y-89195404D01*
X136543149Y-89250862D01*
X136543149Y-89306321D01*
X136597475Y-89306321D01*
X136616598Y-89306389D01*
X136631084Y-89306623D01*
X136641576Y-89307063D01*
X136648717Y-89307752D01*
X136653151Y-89308731D01*
X136655522Y-89310041D01*
X136655575Y-89310093D01*
X136656898Y-89312404D01*
X136657888Y-89316755D01*
X136658586Y-89323792D01*
X136659034Y-89334157D01*
X136659274Y-89348493D01*
X136659347Y-89367444D01*
X136659347Y-89368193D01*
X136659347Y-89422520D01*
X136601248Y-89422520D01*
X136543149Y-89422520D01*
X136543149Y-89480619D01*
X136543149Y-89538718D01*
X136485049Y-89538718D01*
X136426950Y-89538718D01*
X136426950Y-89480619D01*
X136426950Y-89422520D01*
X136371491Y-89422520D01*
X136316033Y-89422520D01*
X136316033Y-89364420D01*
X136316033Y-89311603D01*
X136432232Y-89311603D01*
X136432232Y-89364420D01*
X136432232Y-89417238D01*
X136485049Y-89417238D01*
X136537867Y-89417238D01*
X136537867Y-89364420D01*
X136537867Y-89311603D01*
X136485049Y-89311603D01*
X136432232Y-89311603D01*
X136316033Y-89311603D01*
X136316033Y-89306321D01*
X136371491Y-89306321D01*
X136426950Y-89306321D01*
X136426950Y-89250862D01*
X136426950Y-89195404D01*
X136485049Y-89195404D01*
G37*
G36*
X134443648Y-91403181D02*
G01*
X134446289Y-91403181D01*
X134504388Y-91403181D01*
X134504388Y-91458639D01*
X134504388Y-91514098D01*
X134559846Y-91514098D01*
X134615305Y-91514098D01*
X134615305Y-91572197D01*
X134615305Y-91630297D01*
X134559846Y-91630297D01*
X134504388Y-91630297D01*
X134504388Y-91684623D01*
X134504319Y-91703746D01*
X134504086Y-91718232D01*
X134503646Y-91728724D01*
X134502957Y-91735865D01*
X134501978Y-91740299D01*
X134500667Y-91742670D01*
X134500615Y-91742723D01*
X134498305Y-91744046D01*
X134493953Y-91745036D01*
X134486917Y-91745734D01*
X134476552Y-91746182D01*
X134462216Y-91746422D01*
X134443265Y-91746495D01*
X134442516Y-91746495D01*
X134388189Y-91746495D01*
X134388189Y-91692169D01*
X134388121Y-91673046D01*
X134387887Y-91658560D01*
X134387447Y-91648068D01*
X134386758Y-91640927D01*
X134385779Y-91636493D01*
X134384468Y-91634122D01*
X134384416Y-91634069D01*
X134382106Y-91632746D01*
X134377754Y-91631756D01*
X134370718Y-91631058D01*
X134360353Y-91630610D01*
X134346017Y-91630370D01*
X134327066Y-91630297D01*
X134326317Y-91630297D01*
X134271990Y-91630297D01*
X134271990Y-91572197D01*
X134271990Y-91519380D01*
X134388189Y-91519380D01*
X134388189Y-91572197D01*
X134388189Y-91625015D01*
X134441007Y-91625015D01*
X134460425Y-91625144D01*
X134475697Y-91625522D01*
X134486517Y-91626133D01*
X134492578Y-91626963D01*
X134493824Y-91627656D01*
X134495834Y-91630220D01*
X134496465Y-91630297D01*
X134497419Y-91627705D01*
X134498173Y-91620122D01*
X134498713Y-91607835D01*
X134499027Y-91591130D01*
X134499106Y-91574838D01*
X134499106Y-91519380D01*
X134443648Y-91519380D01*
X134388189Y-91519380D01*
X134271990Y-91519380D01*
X134271990Y-91514098D01*
X134330090Y-91514098D01*
X134388189Y-91514098D01*
X134388189Y-91458639D01*
X134388189Y-91403181D01*
X134443648Y-91403181D01*
G37*
G36*
X136601248Y-91281700D02*
G01*
X136601248Y-91334518D01*
X136656707Y-91334518D01*
X136712165Y-91334518D01*
X136712165Y-91387336D01*
X136712165Y-91440153D01*
X136764983Y-91440153D01*
X136817800Y-91440153D01*
X136817800Y-91495612D01*
X136817800Y-91551070D01*
X136764983Y-91551070D01*
X136712165Y-91551070D01*
X136712165Y-91603888D01*
X136712165Y-91656705D01*
X136660479Y-91656705D01*
X136641838Y-91656780D01*
X136627819Y-91657032D01*
X136617764Y-91657507D01*
X136611015Y-91658250D01*
X136606914Y-91659305D01*
X136605021Y-91660478D01*
X136603665Y-91662849D01*
X136602661Y-91667309D01*
X136601961Y-91674517D01*
X136601523Y-91685130D01*
X136601301Y-91699807D01*
X136601248Y-91715937D01*
X136601248Y-91767623D01*
X136548430Y-91767623D01*
X136495613Y-91767623D01*
X136495613Y-91712164D01*
X136495613Y-91656705D01*
X136440154Y-91656705D01*
X136384696Y-91656705D01*
X136384696Y-91603888D01*
X136384696Y-91551070D01*
X136331878Y-91551070D01*
X136279060Y-91551070D01*
X136279060Y-91495612D01*
X136279060Y-91445435D01*
X136389977Y-91445435D01*
X136389977Y-91495612D01*
X136389977Y-91545788D01*
X136442795Y-91545788D01*
X136495613Y-91545788D01*
X136495613Y-91601247D01*
X136495613Y-91656705D01*
X136548430Y-91656705D01*
X136601248Y-91656705D01*
X136601248Y-91601247D01*
X136601248Y-91545788D01*
X136654066Y-91545788D01*
X136706883Y-91545788D01*
X136706883Y-91495612D01*
X136706883Y-91445435D01*
X136654066Y-91445435D01*
X136601248Y-91445435D01*
X136601248Y-91392617D01*
X136601248Y-91339800D01*
X136548430Y-91339800D01*
X136495613Y-91339800D01*
X136495613Y-91392617D01*
X136495613Y-91445435D01*
X136442795Y-91445435D01*
X136389977Y-91445435D01*
X136279060Y-91445435D01*
X136279060Y-91440153D01*
X136331878Y-91440153D01*
X136384696Y-91440153D01*
X136384696Y-91387336D01*
X136384696Y-91334518D01*
X136440154Y-91334518D01*
X136495613Y-91334518D01*
X136495613Y-91281700D01*
X136495613Y-91228883D01*
X136548430Y-91228883D01*
X136601248Y-91228883D01*
X136601248Y-91281700D01*
G37*
G36*
X134467416Y-89200686D02*
G01*
X134472697Y-89200686D01*
X134472697Y-89253503D01*
X134472697Y-89306321D01*
X134525515Y-89306321D01*
X134578333Y-89306321D01*
X134578333Y-89358007D01*
X134578407Y-89376648D01*
X134578659Y-89390666D01*
X134579134Y-89400721D01*
X134579877Y-89407470D01*
X134580932Y-89411572D01*
X134582105Y-89413465D01*
X134584476Y-89414820D01*
X134588936Y-89415825D01*
X134596144Y-89416524D01*
X134606757Y-89416963D01*
X134621434Y-89417185D01*
X134637564Y-89417238D01*
X134689250Y-89417238D01*
X134689250Y-89468924D01*
X134689176Y-89487565D01*
X134688923Y-89501583D01*
X134688448Y-89511638D01*
X134687706Y-89518387D01*
X134686651Y-89522489D01*
X134685477Y-89524382D01*
X134681584Y-89525774D01*
X134673652Y-89526883D01*
X134662710Y-89527704D01*
X134649787Y-89528231D01*
X134635913Y-89528461D01*
X134622115Y-89528387D01*
X134609424Y-89528004D01*
X134598867Y-89527307D01*
X134591475Y-89526291D01*
X134588274Y-89524950D01*
X134588244Y-89524877D01*
X134586336Y-89523361D01*
X134582742Y-89526009D01*
X134581200Y-89528155D01*
X134580059Y-89531557D01*
X134579260Y-89536946D01*
X134578746Y-89545055D01*
X134578460Y-89556614D01*
X134578345Y-89572353D01*
X134578333Y-89582104D01*
X134578333Y-89633790D01*
X134525515Y-89633790D01*
X134472697Y-89633790D01*
X134472697Y-89686608D01*
X134472697Y-89739425D01*
X134417239Y-89739425D01*
X134361780Y-89739425D01*
X134361780Y-89686608D01*
X134361780Y-89633790D01*
X134308963Y-89633790D01*
X134256145Y-89633790D01*
X134256145Y-89580972D01*
X134256145Y-89528155D01*
X134203327Y-89528155D01*
X134150510Y-89528155D01*
X134150510Y-89472696D01*
X134150510Y-89470055D01*
X134261427Y-89470055D01*
X134261427Y-89522873D01*
X134314244Y-89522873D01*
X134367062Y-89522873D01*
X134367062Y-89575691D01*
X134367062Y-89628508D01*
X134417239Y-89628508D01*
X134467416Y-89628508D01*
X134467416Y-89575691D01*
X134467416Y-89522873D01*
X134522874Y-89522873D01*
X134578333Y-89522873D01*
X134578333Y-89470055D01*
X134578312Y-89452115D01*
X134578204Y-89438775D01*
X134577942Y-89429356D01*
X134577456Y-89423176D01*
X134576679Y-89419557D01*
X134575543Y-89417816D01*
X134573980Y-89417273D01*
X134573051Y-89417238D01*
X134568760Y-89418344D01*
X134567769Y-89419879D01*
X134565185Y-89420868D01*
X134557652Y-89421642D01*
X134545498Y-89422182D01*
X134529054Y-89422473D01*
X134517592Y-89422520D01*
X134467416Y-89422520D01*
X134467416Y-89367061D01*
X134467416Y-89311603D01*
X134417239Y-89311603D01*
X134367062Y-89311603D01*
X134367062Y-89364420D01*
X134367041Y-89382361D01*
X134366934Y-89395701D01*
X134366671Y-89405120D01*
X134366185Y-89411299D01*
X134365408Y-89414919D01*
X134364272Y-89416660D01*
X134362709Y-89417203D01*
X134361780Y-89417238D01*
X134357489Y-89418344D01*
X134356499Y-89419879D01*
X134353924Y-89420909D01*
X134346453Y-89421704D01*
X134334470Y-89422242D01*
X134318355Y-89422500D01*
X134311604Y-89422520D01*
X134294093Y-89422368D01*
X134280576Y-89421929D01*
X134271434Y-89421224D01*
X134267049Y-89420276D01*
X134266709Y-89419879D01*
X134264699Y-89417315D01*
X134264068Y-89417238D01*
X134263097Y-89419826D01*
X134262333Y-89427385D01*
X134261792Y-89439609D01*
X134261489Y-89456191D01*
X134261427Y-89470055D01*
X134150510Y-89470055D01*
X134150510Y-89417238D01*
X134203327Y-89417238D01*
X134256145Y-89417238D01*
X134256145Y-89361779D01*
X134256145Y-89306321D01*
X134308963Y-89306321D01*
X134361780Y-89306321D01*
X134361780Y-89257276D01*
X134361861Y-89239126D01*
X134362135Y-89225582D01*
X134362650Y-89215970D01*
X134363455Y-89209617D01*
X134364597Y-89205849D01*
X134365553Y-89204458D01*
X134367924Y-89203103D01*
X134372384Y-89202098D01*
X134379592Y-89201399D01*
X134390205Y-89200960D01*
X134404882Y-89200738D01*
X134421012Y-89200686D01*
X134467416Y-89200686D01*
G37*
G36*
X135531693Y-89464526D02*
G01*
X135545778Y-89464963D01*
X135557926Y-89465716D01*
X135567104Y-89466786D01*
X135571304Y-89467910D01*
X135572285Y-89468172D01*
X135572813Y-89468546D01*
X135573763Y-89470228D01*
X135574544Y-89473498D01*
X135575173Y-89478815D01*
X135575664Y-89486633D01*
X135576033Y-89497408D01*
X135576294Y-89511597D01*
X135576463Y-89529655D01*
X135576555Y-89552039D01*
X135576586Y-89579205D01*
X135576586Y-89582104D01*
X135576592Y-89609038D01*
X135576625Y-89631163D01*
X135576707Y-89648952D01*
X135576862Y-89662877D01*
X135577112Y-89673412D01*
X135577481Y-89681029D01*
X135577989Y-89686200D01*
X135578662Y-89689399D01*
X135579520Y-89691099D01*
X135580587Y-89691771D01*
X135581868Y-89691890D01*
X135586159Y-89692995D01*
X135587149Y-89694530D01*
X135589618Y-89695601D01*
X135596351Y-89696411D01*
X135606338Y-89696967D01*
X135618566Y-89697276D01*
X135632025Y-89697344D01*
X135645704Y-89697178D01*
X135658593Y-89696786D01*
X135669679Y-89696173D01*
X135677953Y-89695347D01*
X135682403Y-89694313D01*
X135682874Y-89693894D01*
X135684878Y-89692524D01*
X135688804Y-89695454D01*
X135691931Y-89699382D01*
X135691090Y-89701972D01*
X135689912Y-89702894D01*
X135687674Y-89705389D01*
X135689484Y-89706835D01*
X135690268Y-89709676D01*
X135690958Y-89717063D01*
X135691552Y-89728310D01*
X135692047Y-89742726D01*
X135692442Y-89759623D01*
X135692733Y-89778313D01*
X135692920Y-89798106D01*
X135692999Y-89818315D01*
X135692968Y-89838249D01*
X135692826Y-89857221D01*
X135692570Y-89874541D01*
X135692198Y-89889522D01*
X135691707Y-89901473D01*
X135691096Y-89909707D01*
X135690362Y-89913535D01*
X135690144Y-89913724D01*
X135687580Y-89915733D01*
X135687503Y-89916364D01*
X135690093Y-89917325D01*
X135697666Y-89918083D01*
X135709927Y-89918624D01*
X135726581Y-89918934D01*
X135741830Y-89919005D01*
X135760952Y-89919074D01*
X135775438Y-89919307D01*
X135785930Y-89919748D01*
X135793071Y-89920436D01*
X135797506Y-89921415D01*
X135799876Y-89922726D01*
X135799929Y-89922778D01*
X135800868Y-89924443D01*
X135801643Y-89927688D01*
X135802268Y-89932962D01*
X135802759Y-89940717D01*
X135803129Y-89951402D01*
X135803394Y-89965469D01*
X135803567Y-89983368D01*
X135803665Y-90005550D01*
X135803701Y-90032465D01*
X135803702Y-90038977D01*
X135803702Y-90151403D01*
X135856299Y-90151403D01*
X135875480Y-90151316D01*
X135889887Y-90151033D01*
X135900025Y-90150525D01*
X135906399Y-90149761D01*
X135909514Y-90148709D01*
X135909989Y-90148125D01*
X135911897Y-90146609D01*
X135915491Y-90149257D01*
X135916998Y-90151348D01*
X135918124Y-90154664D01*
X135918921Y-90159917D01*
X135919444Y-90167818D01*
X135919745Y-90179077D01*
X135919878Y-90194407D01*
X135919901Y-90207993D01*
X135919901Y-90262320D01*
X136033458Y-90262320D01*
X136147016Y-90262320D01*
X136147016Y-90317778D01*
X136147035Y-90336221D01*
X136147135Y-90350046D01*
X136147378Y-90359918D01*
X136147828Y-90366501D01*
X136148548Y-90370459D01*
X136149601Y-90372458D01*
X136151051Y-90373160D01*
X136152298Y-90373237D01*
X136156589Y-90374343D01*
X136157580Y-90375878D01*
X136160104Y-90376654D01*
X136167211Y-90377303D01*
X136178203Y-90377829D01*
X136192383Y-90378232D01*
X136209054Y-90378516D01*
X136227519Y-90378682D01*
X136247080Y-90378734D01*
X136267040Y-90378672D01*
X136286701Y-90378500D01*
X136305366Y-90378220D01*
X136322338Y-90377834D01*
X136336920Y-90377344D01*
X136348413Y-90376753D01*
X136356122Y-90376063D01*
X136359348Y-90375276D01*
X136359387Y-90375218D01*
X136361122Y-90373276D01*
X136362468Y-90375218D01*
X136366099Y-90377995D01*
X136369071Y-90378519D01*
X136370755Y-90378764D01*
X136372018Y-90379941D01*
X136372920Y-90382713D01*
X136373521Y-90387743D01*
X136373882Y-90395693D01*
X136374064Y-90407228D01*
X136374127Y-90423009D01*
X136374132Y-90433977D01*
X136374132Y-90489436D01*
X136543149Y-90489436D01*
X136712165Y-90489436D01*
X136712165Y-90547535D01*
X136712165Y-90605635D01*
X136543149Y-90605635D01*
X136374132Y-90605635D01*
X136374132Y-90659961D01*
X136374085Y-90678576D01*
X136373907Y-90692620D01*
X136373545Y-90702806D01*
X136372947Y-90709845D01*
X136372057Y-90714447D01*
X136370824Y-90717324D01*
X136369723Y-90718697D01*
X136366007Y-90721371D01*
X136364221Y-90719829D01*
X136361441Y-90717338D01*
X136357035Y-90716614D01*
X136353576Y-90717803D01*
X136353005Y-90719192D01*
X136350481Y-90719965D01*
X136343376Y-90720613D01*
X136332386Y-90721137D01*
X136318210Y-90721540D01*
X136301547Y-90721824D01*
X136283094Y-90721992D01*
X136263550Y-90722045D01*
X136243612Y-90721986D01*
X136223979Y-90721817D01*
X136205350Y-90721541D01*
X136188421Y-90721158D01*
X136173892Y-90720673D01*
X136162460Y-90720086D01*
X136154823Y-90719400D01*
X136151681Y-90718617D01*
X136151646Y-90718556D01*
X136149738Y-90717039D01*
X136146144Y-90719688D01*
X136143841Y-90723282D01*
X136142465Y-90729162D01*
X136141834Y-90738455D01*
X136141735Y-90746733D01*
X136142024Y-90757731D01*
X136142822Y-90765527D01*
X136144021Y-90769202D01*
X136144376Y-90769369D01*
X136145793Y-90771785D01*
X136146712Y-90778186D01*
X136147158Y-90787300D01*
X136147154Y-90797857D01*
X136146725Y-90808585D01*
X136145894Y-90818213D01*
X136144686Y-90825470D01*
X136143244Y-90828978D01*
X136141563Y-90829927D01*
X136138292Y-90830709D01*
X136132975Y-90831337D01*
X136125157Y-90831828D01*
X136114382Y-90832197D01*
X136100193Y-90832458D01*
X136082135Y-90832628D01*
X136059751Y-90832720D01*
X136032585Y-90832750D01*
X136029686Y-90832750D01*
X135919901Y-90832750D01*
X135919901Y-90887077D01*
X135919832Y-90906200D01*
X135919599Y-90920685D01*
X135919158Y-90931177D01*
X135918470Y-90938319D01*
X135917491Y-90942753D01*
X135916180Y-90945123D01*
X135916128Y-90945176D01*
X135913818Y-90946500D01*
X135909466Y-90947489D01*
X135902429Y-90948187D01*
X135892064Y-90948636D01*
X135877728Y-90948876D01*
X135858777Y-90948949D01*
X135858028Y-90948949D01*
X135803702Y-90948949D01*
X135803702Y-91058734D01*
X135803677Y-91086387D01*
X135803591Y-91109213D01*
X135803430Y-91127671D01*
X135803178Y-91142214D01*
X135802821Y-91153300D01*
X135802342Y-91161384D01*
X135801727Y-91166923D01*
X135800961Y-91170371D01*
X135800029Y-91172186D01*
X135799929Y-91172292D01*
X135797619Y-91173616D01*
X135793267Y-91174605D01*
X135786230Y-91175303D01*
X135775866Y-91175751D01*
X135761529Y-91175991D01*
X135742578Y-91176065D01*
X135741830Y-91176065D01*
X135722065Y-91176191D01*
X135706471Y-91176559D01*
X135695343Y-91177155D01*
X135688976Y-91177965D01*
X135687503Y-91178706D01*
X135689513Y-91181270D01*
X135690144Y-91181347D01*
X135690877Y-91183968D01*
X135691495Y-91191756D01*
X135691996Y-91204596D01*
X135692377Y-91222375D01*
X135692635Y-91244978D01*
X135692767Y-91272291D01*
X135692785Y-91288491D01*
X135692759Y-91315790D01*
X135692670Y-91338268D01*
X135692504Y-91356389D01*
X135692244Y-91370612D01*
X135691874Y-91381401D01*
X135691379Y-91389216D01*
X135690743Y-91394518D01*
X135689950Y-91397771D01*
X135689012Y-91399408D01*
X135686702Y-91400731D01*
X135682350Y-91401721D01*
X135675313Y-91402419D01*
X135664949Y-91402867D01*
X135650612Y-91403107D01*
X135631661Y-91403181D01*
X135630913Y-91403181D01*
X135576586Y-91403181D01*
X135576586Y-91516739D01*
X135576586Y-91630297D01*
X135518487Y-91630297D01*
X135460387Y-91630297D01*
X135460387Y-91517871D01*
X135460372Y-91490341D01*
X135460313Y-91467613D01*
X135460193Y-91449209D01*
X135459993Y-91434649D01*
X135459696Y-91423454D01*
X135459284Y-91415145D01*
X135458737Y-91409241D01*
X135458039Y-91405265D01*
X135457172Y-91402737D01*
X135456116Y-91401178D01*
X135455978Y-91401035D01*
X135452262Y-91398361D01*
X135450476Y-91399903D01*
X135448642Y-91401126D01*
X135443725Y-91402032D01*
X135435215Y-91402653D01*
X135422599Y-91403022D01*
X135405364Y-91403173D01*
X135399427Y-91403181D01*
X135349470Y-91403181D01*
X135349470Y-91289623D01*
X135349470Y-91176065D01*
X135291371Y-91176065D01*
X135233271Y-91176065D01*
X135233271Y-91062507D01*
X135233271Y-90948949D01*
X135178945Y-90948949D01*
X135159822Y-90948881D01*
X135145336Y-90948647D01*
X135134844Y-90948207D01*
X135127703Y-90947518D01*
X135123269Y-90946539D01*
X135120898Y-90945228D01*
X135120845Y-90945176D01*
X135119522Y-90942866D01*
X135118532Y-90938514D01*
X135117834Y-90931478D01*
X135117386Y-90921113D01*
X135117146Y-90906777D01*
X135117073Y-90887826D01*
X135117073Y-90887077D01*
X135117073Y-90832750D01*
X135006155Y-90832750D01*
X134895238Y-90832750D01*
X134895238Y-90777292D01*
X134895238Y-90721833D01*
X134782812Y-90721833D01*
X134754810Y-90721809D01*
X134731639Y-90721726D01*
X134712849Y-90721570D01*
X134697988Y-90721326D01*
X134686607Y-90720980D01*
X134678254Y-90720517D01*
X134672480Y-90719922D01*
X134668833Y-90719181D01*
X134666864Y-90718279D01*
X134666614Y-90718061D01*
X134665290Y-90715750D01*
X134664301Y-90711399D01*
X134663603Y-90704362D01*
X134663154Y-90693997D01*
X134662915Y-90679661D01*
X134662841Y-90660710D01*
X134662841Y-90659961D01*
X134662841Y-90605635D01*
X134493824Y-90605635D01*
X134324808Y-90605635D01*
X134324808Y-90547535D01*
X134324808Y-90494718D01*
X134668123Y-90494718D01*
X134668123Y-90547535D01*
X134668123Y-90600353D01*
X134781681Y-90600353D01*
X134895238Y-90600353D01*
X134895238Y-90658452D01*
X134895238Y-90716552D01*
X135008796Y-90716552D01*
X135122354Y-90716552D01*
X135122354Y-90772010D01*
X135122354Y-90827469D01*
X135180454Y-90827469D01*
X135238553Y-90827469D01*
X135238553Y-90885568D01*
X135238553Y-90943667D01*
X135294012Y-90943667D01*
X135349470Y-90943667D01*
X135349470Y-91057225D01*
X135349470Y-91170783D01*
X135407570Y-91170783D01*
X135465669Y-91170783D01*
X135465669Y-91284341D01*
X135465669Y-91397899D01*
X135518487Y-91397899D01*
X135571304Y-91397899D01*
X135571304Y-91284341D01*
X135571304Y-91170783D01*
X135629404Y-91170783D01*
X135687503Y-91170783D01*
X135687503Y-91057225D01*
X135687503Y-90943667D01*
X135742961Y-90943667D01*
X135798420Y-90943667D01*
X135798420Y-90885568D01*
X135798420Y-90827469D01*
X135856519Y-90827469D01*
X135914619Y-90827469D01*
X135914619Y-90772010D01*
X135914619Y-90716552D01*
X136028177Y-90716552D01*
X136141735Y-90716552D01*
X136141735Y-90658452D01*
X136141735Y-90600353D01*
X136255293Y-90600353D01*
X136368850Y-90600353D01*
X136368850Y-90547535D01*
X136368850Y-90494718D01*
X136255293Y-90494718D01*
X136141735Y-90494718D01*
X136141735Y-90436618D01*
X136141735Y-90378519D01*
X136028177Y-90378519D01*
X135914619Y-90378519D01*
X135914619Y-90323060D01*
X135914619Y-90267602D01*
X135856519Y-90267602D01*
X135798420Y-90267602D01*
X135798420Y-90209502D01*
X135798420Y-90151403D01*
X135742961Y-90151403D01*
X135687503Y-90151403D01*
X135687503Y-90037845D01*
X135687503Y-89924287D01*
X135629404Y-89924287D01*
X135571304Y-89924287D01*
X135571304Y-89810729D01*
X135571304Y-89697171D01*
X135518487Y-89697171D01*
X135465669Y-89697171D01*
X135465669Y-89810729D01*
X135465669Y-89924287D01*
X135407570Y-89924287D01*
X135349470Y-89924287D01*
X135349470Y-90037845D01*
X135349470Y-90151403D01*
X135294012Y-90151403D01*
X135238553Y-90151403D01*
X135238553Y-90205730D01*
X135238485Y-90224852D01*
X135238251Y-90239338D01*
X135237811Y-90249830D01*
X135237122Y-90256971D01*
X135236143Y-90261406D01*
X135234832Y-90263776D01*
X135234780Y-90263829D01*
X135232470Y-90265152D01*
X135228118Y-90266142D01*
X135221082Y-90266840D01*
X135210717Y-90267288D01*
X135196381Y-90267528D01*
X135177430Y-90267602D01*
X135176681Y-90267602D01*
X135122354Y-90267602D01*
X135122354Y-90323060D01*
X135122354Y-90378519D01*
X135008796Y-90378519D01*
X134895238Y-90378519D01*
X134895238Y-90436618D01*
X134895238Y-90494718D01*
X134781681Y-90494718D01*
X134668123Y-90494718D01*
X134324808Y-90494718D01*
X134324808Y-90489436D01*
X134493824Y-90489436D01*
X134662841Y-90489436D01*
X134662841Y-90435109D01*
X134662888Y-90416495D01*
X134663066Y-90402450D01*
X134663428Y-90392264D01*
X134664027Y-90385226D01*
X134664916Y-90380623D01*
X134666149Y-90377746D01*
X134667250Y-90376373D01*
X134670966Y-90373699D01*
X134672752Y-90375241D01*
X134675615Y-90376178D01*
X134683080Y-90376974D01*
X134694469Y-90377630D01*
X134709104Y-90378149D01*
X134726308Y-90378531D01*
X134745403Y-90378778D01*
X134765711Y-90378892D01*
X134786553Y-90378874D01*
X134807253Y-90378726D01*
X134827132Y-90378449D01*
X134845513Y-90378045D01*
X134861718Y-90377516D01*
X134875068Y-90376862D01*
X134884887Y-90376086D01*
X134890496Y-90375189D01*
X134891466Y-90374746D01*
X134892789Y-90372436D01*
X134893779Y-90368084D01*
X134894477Y-90361047D01*
X134894925Y-90350683D01*
X134895165Y-90336346D01*
X134895238Y-90317395D01*
X134895238Y-90316647D01*
X134895238Y-90262320D01*
X135008796Y-90262320D01*
X135122354Y-90262320D01*
X135122354Y-90206861D01*
X135122354Y-90151403D01*
X135177813Y-90151403D01*
X135233271Y-90151403D01*
X135233271Y-90038977D01*
X135233296Y-90010975D01*
X135233379Y-89987804D01*
X135233535Y-89969013D01*
X135233778Y-89954153D01*
X135234124Y-89942771D01*
X135234588Y-89934419D01*
X135235182Y-89928645D01*
X135235924Y-89924998D01*
X135236826Y-89923028D01*
X135237044Y-89922778D01*
X135239354Y-89921455D01*
X135243706Y-89920465D01*
X135250743Y-89919767D01*
X135261108Y-89919319D01*
X135275444Y-89919079D01*
X135294395Y-89919005D01*
X135295143Y-89919005D01*
X135349470Y-89919005D01*
X135349470Y-89805447D01*
X135349470Y-89691890D01*
X135397006Y-89691890D01*
X135415170Y-89692033D01*
X135429285Y-89692450D01*
X135438999Y-89693120D01*
X135443956Y-89694025D01*
X135444542Y-89694530D01*
X135446467Y-89696877D01*
X135450883Y-89696696D01*
X135455752Y-89694179D01*
X135456614Y-89693399D01*
X135457568Y-89691710D01*
X135458353Y-89688428D01*
X135458983Y-89683093D01*
X135459474Y-89675247D01*
X135459842Y-89664432D01*
X135460102Y-89650189D01*
X135460269Y-89632061D01*
X135460359Y-89609588D01*
X135460387Y-89582312D01*
X135460387Y-89580972D01*
X135460413Y-89553471D01*
X135460499Y-89530793D01*
X135460663Y-89512480D01*
X135460918Y-89498073D01*
X135461281Y-89487115D01*
X135461766Y-89479146D01*
X135462390Y-89473708D01*
X135463167Y-89470344D01*
X135464113Y-89468594D01*
X135464160Y-89468546D01*
X135468243Y-89467085D01*
X135476569Y-89465941D01*
X135488107Y-89465112D01*
X135501827Y-89464600D01*
X135516699Y-89464405D01*
X135531693Y-89464526D01*
G37*
G36*
X137727094Y-93803701D02*
G01*
X137727094Y-93861800D01*
X137668995Y-93861800D01*
X137610896Y-93861800D01*
X137610896Y-93803701D01*
X137610896Y-93745602D01*
X137668995Y-93745602D01*
X137727094Y-93745602D01*
X137727094Y-93803701D01*
G37*
G36*
X137822089Y-94539876D02*
G01*
X137822166Y-94540507D01*
X137820156Y-94543071D01*
X137819525Y-94543148D01*
X137816961Y-94541138D01*
X137816884Y-94540507D01*
X137818894Y-94537943D01*
X137819525Y-94537866D01*
X137822089Y-94539876D01*
G37*
G36*
X138339779Y-92889956D02*
G01*
X138339779Y-92948055D01*
X138281679Y-92948055D01*
X138223580Y-92948055D01*
X138223580Y-92889956D01*
X138223580Y-92831857D01*
X138281679Y-92831857D01*
X138339779Y-92831857D01*
X138339779Y-92889956D01*
G37*
G36*
X139105635Y-92118819D02*
G01*
X139105635Y-92176918D01*
X139047535Y-92176918D01*
X138989436Y-92176918D01*
X138989436Y-92118819D01*
X138989436Y-92060719D01*
X139047535Y-92060719D01*
X139105635Y-92060719D01*
X139105635Y-92118819D01*
G37*
G36*
X139105635Y-94844208D02*
G01*
X139105635Y-94902308D01*
X139047535Y-94902308D01*
X138989436Y-94902308D01*
X138989436Y-94844208D01*
X138989436Y-94786109D01*
X139047535Y-94786109D01*
X139105635Y-94786109D01*
X139105635Y-94844208D01*
G37*
G36*
X140304595Y-92985028D02*
G01*
X140304595Y-93043127D01*
X140246495Y-93043127D01*
X140188396Y-93043127D01*
X140188396Y-92985028D01*
X140188396Y-92926928D01*
X140246495Y-92926928D01*
X140304595Y-92926928D01*
X140304595Y-92985028D01*
G37*
G36*
X140346849Y-94051944D02*
G01*
X140346849Y-94110043D01*
X140288750Y-94110043D01*
X140230650Y-94110043D01*
X140230650Y-94051944D01*
X140230650Y-93993845D01*
X140288750Y-93993845D01*
X140346849Y-93993845D01*
X140346849Y-94051944D01*
G37*
G36*
X138466046Y-92298467D02*
G01*
X138480532Y-92298700D01*
X138491024Y-92299141D01*
X138498165Y-92299829D01*
X138502599Y-92300808D01*
X138504970Y-92302119D01*
X138505023Y-92302171D01*
X138506346Y-92304481D01*
X138507336Y-92308833D01*
X138508034Y-92315870D01*
X138508482Y-92326235D01*
X138508722Y-92340571D01*
X138508795Y-92359522D01*
X138508795Y-92360271D01*
X138508795Y-92414597D01*
X138450696Y-92414597D01*
X138392597Y-92414597D01*
X138392597Y-92356498D01*
X138392597Y-92298398D01*
X138446923Y-92298398D01*
X138466046Y-92298467D01*
G37*
G36*
X138651403Y-94491839D02*
G01*
X138651334Y-94510962D01*
X138651101Y-94525448D01*
X138650661Y-94535940D01*
X138649972Y-94543081D01*
X138648993Y-94547515D01*
X138647682Y-94549886D01*
X138647630Y-94549939D01*
X138645320Y-94551262D01*
X138640968Y-94552252D01*
X138633932Y-94552950D01*
X138623567Y-94553398D01*
X138609230Y-94553638D01*
X138590280Y-94553711D01*
X138589531Y-94553711D01*
X138535204Y-94553711D01*
X138535204Y-94495612D01*
X138535204Y-94437513D01*
X138593304Y-94437513D01*
X138651403Y-94437513D01*
X138651403Y-94491839D01*
G37*
G36*
X139105635Y-93085381D02*
G01*
X139105635Y-93201580D01*
X139050176Y-93201580D01*
X138994718Y-93201580D01*
X138994718Y-93257039D01*
X138994718Y-93312497D01*
X138936618Y-93312497D01*
X138878519Y-93312497D01*
X138878519Y-93370596D01*
X138878519Y-93428696D01*
X138823060Y-93428696D01*
X138767602Y-93428696D01*
X138767602Y-93484154D01*
X138767602Y-93539613D01*
X138651403Y-93539613D01*
X138535204Y-93539613D01*
X138535204Y-93481513D01*
X138535204Y-93423414D01*
X138648762Y-93423414D01*
X138762320Y-93423414D01*
X138762320Y-93365315D01*
X138762320Y-93307215D01*
X138817778Y-93307215D01*
X138873237Y-93307215D01*
X138873237Y-93251757D01*
X138873237Y-93196298D01*
X138931336Y-93196298D01*
X138989436Y-93196298D01*
X138989436Y-93082740D01*
X138989436Y-92969182D01*
X139047535Y-92969182D01*
X139105635Y-92969182D01*
X139105635Y-93085381D01*
G37*
G36*
X137922520Y-92398752D02*
G01*
X137922520Y-92456851D01*
X137980619Y-92456851D01*
X138038718Y-92456851D01*
X138038718Y-92514951D01*
X138038718Y-92573050D01*
X137980619Y-92573050D01*
X137922520Y-92573050D01*
X137922520Y-92628509D01*
X137922520Y-92683967D01*
X137864420Y-92683967D01*
X137806321Y-92683967D01*
X137806321Y-92628509D01*
X137806321Y-92573050D01*
X137750862Y-92573050D01*
X137695404Y-92573050D01*
X137695404Y-92567768D01*
X137811603Y-92567768D01*
X137864420Y-92567768D01*
X137917238Y-92567768D01*
X137917238Y-92514951D01*
X137917238Y-92462133D01*
X137864420Y-92462133D01*
X137811603Y-92462133D01*
X137811603Y-92514951D01*
X137811603Y-92567768D01*
X137695404Y-92567768D01*
X137695404Y-92514951D01*
X137695404Y-92456851D01*
X137750862Y-92456851D01*
X137806321Y-92456851D01*
X137806321Y-92402525D01*
X137806389Y-92383402D01*
X137806623Y-92368916D01*
X137807063Y-92358424D01*
X137807752Y-92351283D01*
X137808731Y-92346849D01*
X137810041Y-92344478D01*
X137810093Y-92344425D01*
X137812404Y-92343102D01*
X137816755Y-92342112D01*
X137823792Y-92341414D01*
X137834157Y-92340966D01*
X137848493Y-92340726D01*
X137867444Y-92340653D01*
X137868193Y-92340653D01*
X137922520Y-92340653D01*
X137922520Y-92398752D01*
G37*
G36*
X140130297Y-94440154D02*
G01*
X140130297Y-94495612D01*
X140184623Y-94495612D01*
X140203746Y-94495681D01*
X140218232Y-94495914D01*
X140228724Y-94496354D01*
X140235865Y-94497043D01*
X140240299Y-94498022D01*
X140242670Y-94499333D01*
X140242723Y-94499385D01*
X140244046Y-94501695D01*
X140245036Y-94506047D01*
X140245734Y-94513083D01*
X140246182Y-94523448D01*
X140246422Y-94537784D01*
X140246495Y-94556735D01*
X140246495Y-94557484D01*
X140246495Y-94611811D01*
X140192169Y-94611811D01*
X140173046Y-94611879D01*
X140158560Y-94612113D01*
X140148068Y-94612553D01*
X140140927Y-94613242D01*
X140136493Y-94614221D01*
X140134122Y-94615532D01*
X140134069Y-94615584D01*
X140132746Y-94617894D01*
X140131756Y-94622246D01*
X140131058Y-94629282D01*
X140130610Y-94639647D01*
X140130370Y-94653983D01*
X140130297Y-94672934D01*
X140130297Y-94673683D01*
X140130297Y-94728010D01*
X140072197Y-94728010D01*
X140014098Y-94728010D01*
X140014098Y-94669910D01*
X140014098Y-94611811D01*
X140019380Y-94611811D01*
X140072197Y-94611811D01*
X140125015Y-94611811D01*
X140125015Y-94558993D01*
X140125144Y-94539575D01*
X140125522Y-94524303D01*
X140126133Y-94513483D01*
X140126963Y-94507422D01*
X140127656Y-94506176D01*
X140130220Y-94504166D01*
X140130297Y-94503535D01*
X140127705Y-94502581D01*
X140120122Y-94501827D01*
X140107835Y-94501287D01*
X140091130Y-94500973D01*
X140074838Y-94500894D01*
X140019380Y-94500894D01*
X140019380Y-94556352D01*
X140019380Y-94611811D01*
X140014098Y-94611811D01*
X139958639Y-94611811D01*
X139903181Y-94611811D01*
X139903181Y-94556352D01*
X139903181Y-94553711D01*
X139903181Y-94495612D01*
X139958639Y-94495612D01*
X140014098Y-94495612D01*
X140014098Y-94440154D01*
X140014098Y-94384695D01*
X140072197Y-94384695D01*
X140130297Y-94384695D01*
X140130297Y-94440154D01*
G37*
G36*
X140051070Y-92235017D02*
G01*
X140051070Y-92287835D01*
X140103888Y-92287835D01*
X140156705Y-92287835D01*
X140156705Y-92339521D01*
X140156780Y-92358162D01*
X140157032Y-92372181D01*
X140157507Y-92382236D01*
X140158250Y-92388985D01*
X140159305Y-92393086D01*
X140160478Y-92394979D01*
X140162849Y-92396335D01*
X140167309Y-92397339D01*
X140174517Y-92398039D01*
X140185130Y-92398477D01*
X140199807Y-92398699D01*
X140215937Y-92398752D01*
X140267623Y-92398752D01*
X140267623Y-92451570D01*
X140267623Y-92504387D01*
X140212164Y-92504387D01*
X140156705Y-92504387D01*
X140156705Y-92559846D01*
X140156705Y-92615304D01*
X140103888Y-92615304D01*
X140051070Y-92615304D01*
X140051070Y-92668122D01*
X140051070Y-92720940D01*
X139995612Y-92720940D01*
X139940153Y-92720940D01*
X139940153Y-92668122D01*
X139940153Y-92615304D01*
X139887336Y-92615304D01*
X139834518Y-92615304D01*
X139834518Y-92559846D01*
X139834518Y-92504387D01*
X139781700Y-92504387D01*
X139728883Y-92504387D01*
X139728883Y-92451570D01*
X139839800Y-92451570D01*
X139839800Y-92504387D01*
X139892617Y-92504387D01*
X139945435Y-92504387D01*
X139945435Y-92557205D01*
X139945435Y-92610023D01*
X139995612Y-92610023D01*
X140045788Y-92610023D01*
X140045788Y-92557205D01*
X140045788Y-92504387D01*
X140101247Y-92504387D01*
X140156705Y-92504387D01*
X140156705Y-92451570D01*
X140156705Y-92398752D01*
X140101247Y-92398752D01*
X140045788Y-92398752D01*
X140045788Y-92345934D01*
X140045788Y-92293117D01*
X139995612Y-92293117D01*
X139945435Y-92293117D01*
X139945435Y-92345934D01*
X139945435Y-92398752D01*
X139892617Y-92398752D01*
X139839800Y-92398752D01*
X139839800Y-92451570D01*
X139728883Y-92451570D01*
X139728883Y-92398752D01*
X139781700Y-92398752D01*
X139834518Y-92398752D01*
X139834518Y-92343293D01*
X139834518Y-92287835D01*
X139887336Y-92287835D01*
X139940153Y-92287835D01*
X139940153Y-92235017D01*
X139940153Y-92182200D01*
X139995612Y-92182200D01*
X140051070Y-92182200D01*
X140051070Y-92235017D01*
G37*
G36*
X137987565Y-94310824D02*
G01*
X138001583Y-94311077D01*
X138011638Y-94311552D01*
X138018387Y-94312294D01*
X138022489Y-94313349D01*
X138024382Y-94314523D01*
X138025774Y-94318416D01*
X138026883Y-94326348D01*
X138027704Y-94337290D01*
X138028231Y-94350213D01*
X138028461Y-94364087D01*
X138028387Y-94377885D01*
X138028004Y-94390576D01*
X138027307Y-94401133D01*
X138026291Y-94408525D01*
X138024950Y-94411726D01*
X138024877Y-94411756D01*
X138023361Y-94413664D01*
X138026009Y-94417258D01*
X138028155Y-94418800D01*
X138031557Y-94419941D01*
X138036946Y-94420740D01*
X138045055Y-94421254D01*
X138056614Y-94421540D01*
X138072353Y-94421655D01*
X138082104Y-94421667D01*
X138133790Y-94421667D01*
X138133790Y-94474485D01*
X138133790Y-94527303D01*
X138186608Y-94527303D01*
X138239425Y-94527303D01*
X138239425Y-94582761D01*
X138239425Y-94638220D01*
X138186608Y-94638220D01*
X138133790Y-94638220D01*
X138133790Y-94691037D01*
X138133790Y-94743855D01*
X138080972Y-94743855D01*
X138028155Y-94743855D01*
X138028155Y-94796673D01*
X138028155Y-94849490D01*
X137972696Y-94849490D01*
X137917238Y-94849490D01*
X137917238Y-94796673D01*
X137917238Y-94743855D01*
X137861779Y-94743855D01*
X137806321Y-94743855D01*
X137806321Y-94691037D01*
X137806321Y-94638220D01*
X137757276Y-94638220D01*
X137739126Y-94638139D01*
X137725582Y-94637865D01*
X137715970Y-94637350D01*
X137709617Y-94636545D01*
X137705849Y-94635403D01*
X137704458Y-94634447D01*
X137703103Y-94632076D01*
X137702098Y-94627616D01*
X137701399Y-94620408D01*
X137700960Y-94609795D01*
X137700738Y-94595118D01*
X137700698Y-94582761D01*
X137811603Y-94582761D01*
X137811603Y-94632938D01*
X137864420Y-94632938D01*
X137882361Y-94632959D01*
X137895701Y-94633066D01*
X137905120Y-94633329D01*
X137911299Y-94633815D01*
X137914919Y-94634592D01*
X137916660Y-94635728D01*
X137917203Y-94637291D01*
X137917238Y-94638220D01*
X137918344Y-94642511D01*
X137919879Y-94643501D01*
X137920909Y-94646076D01*
X137921704Y-94653547D01*
X137922242Y-94665530D01*
X137922500Y-94681645D01*
X137922520Y-94688396D01*
X137922368Y-94705907D01*
X137921929Y-94719424D01*
X137921224Y-94728566D01*
X137920276Y-94732951D01*
X137919879Y-94733291D01*
X137917315Y-94735301D01*
X137917238Y-94735932D01*
X137919826Y-94736903D01*
X137927385Y-94737667D01*
X137939609Y-94738208D01*
X137956191Y-94738511D01*
X137970055Y-94738573D01*
X138022873Y-94738573D01*
X138022873Y-94685756D01*
X138022873Y-94632938D01*
X138075691Y-94632938D01*
X138128508Y-94632938D01*
X138128508Y-94582761D01*
X138128508Y-94532584D01*
X138075691Y-94532584D01*
X138022873Y-94532584D01*
X138022873Y-94477126D01*
X138022873Y-94421667D01*
X137970055Y-94421667D01*
X137952115Y-94421688D01*
X137938775Y-94421796D01*
X137929356Y-94422058D01*
X137923176Y-94422544D01*
X137919557Y-94423321D01*
X137917816Y-94424457D01*
X137917273Y-94426020D01*
X137917238Y-94426949D01*
X137918344Y-94431240D01*
X137919879Y-94432231D01*
X137920868Y-94434815D01*
X137921642Y-94442348D01*
X137922182Y-94454502D01*
X137922473Y-94470946D01*
X137922520Y-94482408D01*
X137922520Y-94532584D01*
X137867061Y-94532584D01*
X137811603Y-94532584D01*
X137811603Y-94582761D01*
X137700698Y-94582761D01*
X137700686Y-94578988D01*
X137700686Y-94532584D01*
X137700686Y-94527303D01*
X137753503Y-94527303D01*
X137806321Y-94527303D01*
X137806321Y-94474485D01*
X137806321Y-94421667D01*
X137858007Y-94421667D01*
X137876648Y-94421593D01*
X137890666Y-94421341D01*
X137900721Y-94420866D01*
X137907470Y-94420123D01*
X137911572Y-94419068D01*
X137913465Y-94417895D01*
X137914820Y-94415524D01*
X137915825Y-94411064D01*
X137916524Y-94403856D01*
X137916963Y-94393243D01*
X137917185Y-94378566D01*
X137917238Y-94362436D01*
X137917238Y-94310750D01*
X137968924Y-94310750D01*
X137987565Y-94310824D01*
G37*
G36*
X139105635Y-92456851D02*
G01*
X139105635Y-92625868D01*
X139159961Y-92625868D01*
X139178576Y-92625915D01*
X139192620Y-92626093D01*
X139202806Y-92626455D01*
X139209845Y-92627053D01*
X139214447Y-92627943D01*
X139217324Y-92629176D01*
X139218697Y-92630277D01*
X139221371Y-92633993D01*
X139219829Y-92635779D01*
X139217338Y-92638559D01*
X139216614Y-92642965D01*
X139217803Y-92646424D01*
X139219192Y-92646995D01*
X139219965Y-92649519D01*
X139220613Y-92656624D01*
X139221137Y-92667614D01*
X139221540Y-92681790D01*
X139221824Y-92698453D01*
X139221992Y-92716906D01*
X139222045Y-92736450D01*
X139221986Y-92756388D01*
X139221817Y-92776021D01*
X139221541Y-92794650D01*
X139221158Y-92811579D01*
X139220673Y-92826108D01*
X139220086Y-92837540D01*
X139219400Y-92845177D01*
X139218617Y-92848319D01*
X139218556Y-92848354D01*
X139217039Y-92850262D01*
X139219688Y-92853856D01*
X139223282Y-92856159D01*
X139229162Y-92857535D01*
X139238455Y-92858166D01*
X139246733Y-92858265D01*
X139257731Y-92857976D01*
X139265527Y-92857178D01*
X139269202Y-92855979D01*
X139269369Y-92855624D01*
X139271785Y-92854207D01*
X139278186Y-92853288D01*
X139287300Y-92852842D01*
X139297857Y-92852846D01*
X139308585Y-92853275D01*
X139318213Y-92854106D01*
X139325470Y-92855314D01*
X139328978Y-92856756D01*
X139329927Y-92858437D01*
X139330709Y-92861708D01*
X139331337Y-92867025D01*
X139331828Y-92874843D01*
X139332197Y-92885618D01*
X139332458Y-92899807D01*
X139332628Y-92917865D01*
X139332720Y-92940249D01*
X139332750Y-92967415D01*
X139332750Y-92970314D01*
X139332750Y-93080099D01*
X139387077Y-93080099D01*
X139406200Y-93080168D01*
X139420685Y-93080401D01*
X139431177Y-93080842D01*
X139438319Y-93081530D01*
X139442753Y-93082509D01*
X139445123Y-93083820D01*
X139445176Y-93083872D01*
X139446500Y-93086182D01*
X139447489Y-93090534D01*
X139448187Y-93097571D01*
X139448636Y-93107936D01*
X139448876Y-93122272D01*
X139448949Y-93141223D01*
X139448949Y-93141972D01*
X139448949Y-93196298D01*
X139558734Y-93196298D01*
X139586387Y-93196323D01*
X139609213Y-93196409D01*
X139627671Y-93196570D01*
X139642214Y-93196822D01*
X139653300Y-93197179D01*
X139661384Y-93197658D01*
X139666923Y-93198273D01*
X139670371Y-93199039D01*
X139672186Y-93199971D01*
X139672292Y-93200071D01*
X139673616Y-93202381D01*
X139674605Y-93206733D01*
X139675303Y-93213770D01*
X139675751Y-93224134D01*
X139675991Y-93238471D01*
X139676065Y-93257422D01*
X139676065Y-93258170D01*
X139676191Y-93277935D01*
X139676559Y-93293529D01*
X139677155Y-93304657D01*
X139677965Y-93311024D01*
X139678706Y-93312497D01*
X139681270Y-93310487D01*
X139681347Y-93309856D01*
X139683968Y-93309123D01*
X139691756Y-93308505D01*
X139704596Y-93308004D01*
X139722375Y-93307623D01*
X139744978Y-93307365D01*
X139772291Y-93307233D01*
X139788491Y-93307215D01*
X139815790Y-93307241D01*
X139838268Y-93307330D01*
X139856389Y-93307496D01*
X139870612Y-93307756D01*
X139881401Y-93308126D01*
X139889216Y-93308621D01*
X139894518Y-93309257D01*
X139897771Y-93310050D01*
X139899408Y-93310988D01*
X139900731Y-93313298D01*
X139901721Y-93317650D01*
X139902419Y-93324687D01*
X139902867Y-93335051D01*
X139903107Y-93349388D01*
X139903181Y-93368339D01*
X139903181Y-93369087D01*
X139903181Y-93423414D01*
X140016739Y-93423414D01*
X140130297Y-93423414D01*
X140130297Y-93481513D01*
X140130297Y-93539613D01*
X140017871Y-93539613D01*
X139990341Y-93539628D01*
X139967613Y-93539687D01*
X139949209Y-93539807D01*
X139934649Y-93540007D01*
X139923454Y-93540304D01*
X139915145Y-93540716D01*
X139909241Y-93541263D01*
X139905265Y-93541961D01*
X139902737Y-93542828D01*
X139901178Y-93543884D01*
X139901035Y-93544022D01*
X139898361Y-93547738D01*
X139899903Y-93549524D01*
X139901126Y-93551358D01*
X139902032Y-93556275D01*
X139902653Y-93564785D01*
X139903022Y-93577401D01*
X139903173Y-93594636D01*
X139903181Y-93600573D01*
X139903181Y-93650530D01*
X139789623Y-93650530D01*
X139676065Y-93650530D01*
X139676065Y-93708629D01*
X139676065Y-93766729D01*
X139562507Y-93766729D01*
X139448949Y-93766729D01*
X139448949Y-93821055D01*
X139448881Y-93840178D01*
X139448647Y-93854664D01*
X139448207Y-93865156D01*
X139447518Y-93872297D01*
X139446539Y-93876731D01*
X139445228Y-93879102D01*
X139445176Y-93879155D01*
X139442866Y-93880478D01*
X139438514Y-93881468D01*
X139431478Y-93882166D01*
X139421113Y-93882614D01*
X139406777Y-93882854D01*
X139387826Y-93882927D01*
X139387077Y-93882927D01*
X139332750Y-93882927D01*
X139332750Y-93993845D01*
X139332750Y-94104762D01*
X139277292Y-94104762D01*
X139221833Y-94104762D01*
X139221833Y-94217188D01*
X139221809Y-94245190D01*
X139221726Y-94268361D01*
X139221570Y-94287151D01*
X139221326Y-94302012D01*
X139220980Y-94313393D01*
X139220517Y-94321746D01*
X139219922Y-94327520D01*
X139219181Y-94331167D01*
X139218279Y-94333136D01*
X139218061Y-94333386D01*
X139215750Y-94334710D01*
X139211399Y-94335699D01*
X139204362Y-94336397D01*
X139193997Y-94336846D01*
X139179661Y-94337085D01*
X139160710Y-94337159D01*
X139159961Y-94337159D01*
X139105635Y-94337159D01*
X139105635Y-94506176D01*
X139105635Y-94675192D01*
X139047535Y-94675192D01*
X138989436Y-94675192D01*
X138989436Y-94506176D01*
X138989436Y-94337159D01*
X138935109Y-94337159D01*
X138916495Y-94337112D01*
X138902450Y-94336934D01*
X138892264Y-94336572D01*
X138885226Y-94335973D01*
X138880623Y-94335084D01*
X138877746Y-94333851D01*
X138876373Y-94332750D01*
X138873699Y-94329034D01*
X138875241Y-94327248D01*
X138876178Y-94324385D01*
X138876974Y-94316920D01*
X138877630Y-94305531D01*
X138878149Y-94290896D01*
X138878531Y-94273692D01*
X138878778Y-94254597D01*
X138878892Y-94234289D01*
X138878874Y-94213447D01*
X138878726Y-94192747D01*
X138878449Y-94172868D01*
X138878045Y-94154487D01*
X138877516Y-94138282D01*
X138876862Y-94124932D01*
X138876086Y-94115113D01*
X138875189Y-94109504D01*
X138874746Y-94108534D01*
X138872436Y-94107211D01*
X138868084Y-94106221D01*
X138861047Y-94105523D01*
X138850683Y-94105075D01*
X138836346Y-94104835D01*
X138817395Y-94104762D01*
X138816647Y-94104762D01*
X138762320Y-94104762D01*
X138762320Y-93991204D01*
X138762320Y-93877646D01*
X138706861Y-93877646D01*
X138651403Y-93877646D01*
X138651403Y-93822187D01*
X138651403Y-93766729D01*
X138538977Y-93766729D01*
X138510975Y-93766704D01*
X138487804Y-93766621D01*
X138469013Y-93766465D01*
X138454153Y-93766222D01*
X138442771Y-93765876D01*
X138434419Y-93765412D01*
X138428645Y-93764818D01*
X138424998Y-93764076D01*
X138423028Y-93763174D01*
X138422778Y-93762956D01*
X138421455Y-93760646D01*
X138420465Y-93756294D01*
X138419767Y-93749257D01*
X138419319Y-93738892D01*
X138419079Y-93724556D01*
X138419005Y-93705605D01*
X138419005Y-93704857D01*
X138419005Y-93650530D01*
X138305447Y-93650530D01*
X138191890Y-93650530D01*
X138191890Y-93602994D01*
X138192033Y-93584830D01*
X138192450Y-93570715D01*
X138193120Y-93561001D01*
X138194025Y-93556044D01*
X138194530Y-93555458D01*
X138196877Y-93553533D01*
X138196696Y-93549117D01*
X138194179Y-93544248D01*
X138193399Y-93543386D01*
X138191710Y-93542432D01*
X138188428Y-93541647D01*
X138183093Y-93541017D01*
X138175247Y-93540526D01*
X138164432Y-93540158D01*
X138150189Y-93539898D01*
X138132061Y-93539731D01*
X138109588Y-93539641D01*
X138082312Y-93539613D01*
X138080972Y-93539613D01*
X138053471Y-93539587D01*
X138030793Y-93539501D01*
X138012480Y-93539337D01*
X137998073Y-93539082D01*
X137987115Y-93538719D01*
X137979146Y-93538234D01*
X137973708Y-93537610D01*
X137970344Y-93536833D01*
X137968594Y-93535887D01*
X137968546Y-93535840D01*
X137967085Y-93531757D01*
X137965941Y-93523431D01*
X137965112Y-93511893D01*
X137964600Y-93498173D01*
X137964405Y-93483301D01*
X137964419Y-93481513D01*
X138197171Y-93481513D01*
X138197171Y-93534331D01*
X138310729Y-93534331D01*
X138424287Y-93534331D01*
X138424287Y-93592430D01*
X138424287Y-93650530D01*
X138537845Y-93650530D01*
X138651403Y-93650530D01*
X138651403Y-93705988D01*
X138651403Y-93761447D01*
X138705730Y-93761447D01*
X138724852Y-93761515D01*
X138739338Y-93761749D01*
X138749830Y-93762189D01*
X138756971Y-93762878D01*
X138761406Y-93763857D01*
X138763776Y-93765168D01*
X138763829Y-93765220D01*
X138765152Y-93767530D01*
X138766142Y-93771882D01*
X138766840Y-93778918D01*
X138767288Y-93789283D01*
X138767528Y-93803619D01*
X138767602Y-93822570D01*
X138767602Y-93823319D01*
X138767602Y-93877646D01*
X138823060Y-93877646D01*
X138878519Y-93877646D01*
X138878519Y-93991204D01*
X138878519Y-94104762D01*
X138936618Y-94104762D01*
X138994718Y-94104762D01*
X138994718Y-94218319D01*
X138994718Y-94331877D01*
X139047535Y-94331877D01*
X139100353Y-94331877D01*
X139100353Y-94218319D01*
X139100353Y-94104762D01*
X139158452Y-94104762D01*
X139216552Y-94104762D01*
X139216552Y-93991204D01*
X139216552Y-93877646D01*
X139272010Y-93877646D01*
X139327469Y-93877646D01*
X139327469Y-93819546D01*
X139327469Y-93761447D01*
X139385568Y-93761447D01*
X139443667Y-93761447D01*
X139443667Y-93705988D01*
X139443667Y-93650530D01*
X139557225Y-93650530D01*
X139670783Y-93650530D01*
X139670783Y-93592430D01*
X139670783Y-93534331D01*
X139784341Y-93534331D01*
X139897899Y-93534331D01*
X139897899Y-93481513D01*
X139897899Y-93428696D01*
X139784341Y-93428696D01*
X139670783Y-93428696D01*
X139670783Y-93370596D01*
X139670783Y-93312497D01*
X139557225Y-93312497D01*
X139443667Y-93312497D01*
X139443667Y-93257039D01*
X139443667Y-93201580D01*
X139385568Y-93201580D01*
X139327469Y-93201580D01*
X139327469Y-93143481D01*
X139327469Y-93085381D01*
X139272010Y-93085381D01*
X139216552Y-93085381D01*
X139216552Y-92971823D01*
X139216552Y-92858265D01*
X139158452Y-92858265D01*
X139100353Y-92858265D01*
X139100353Y-92744707D01*
X139100353Y-92631150D01*
X139047535Y-92631150D01*
X138994718Y-92631150D01*
X138994718Y-92744707D01*
X138994718Y-92858265D01*
X138936618Y-92858265D01*
X138878519Y-92858265D01*
X138878519Y-92971823D01*
X138878519Y-93085381D01*
X138823060Y-93085381D01*
X138767602Y-93085381D01*
X138767602Y-93143481D01*
X138767602Y-93201580D01*
X138709502Y-93201580D01*
X138651403Y-93201580D01*
X138651403Y-93257039D01*
X138651403Y-93312497D01*
X138537845Y-93312497D01*
X138424287Y-93312497D01*
X138424287Y-93370596D01*
X138424287Y-93428696D01*
X138310729Y-93428696D01*
X138197171Y-93428696D01*
X138197171Y-93481513D01*
X137964419Y-93481513D01*
X137964526Y-93468307D01*
X137964963Y-93454222D01*
X137965716Y-93442074D01*
X137966786Y-93432896D01*
X137967910Y-93428696D01*
X137968172Y-93427715D01*
X137968546Y-93427187D01*
X137970228Y-93426237D01*
X137973498Y-93425456D01*
X137978815Y-93424827D01*
X137986633Y-93424336D01*
X137997408Y-93423967D01*
X138011597Y-93423706D01*
X138029655Y-93423537D01*
X138052039Y-93423445D01*
X138079205Y-93423414D01*
X138082104Y-93423414D01*
X138109038Y-93423408D01*
X138131163Y-93423375D01*
X138148952Y-93423293D01*
X138162877Y-93423138D01*
X138173412Y-93422888D01*
X138181029Y-93422519D01*
X138186200Y-93422011D01*
X138189399Y-93421338D01*
X138191099Y-93420480D01*
X138191771Y-93419413D01*
X138191890Y-93418132D01*
X138192995Y-93413841D01*
X138194530Y-93412851D01*
X138195601Y-93410382D01*
X138196411Y-93403649D01*
X138196967Y-93393662D01*
X138197276Y-93381434D01*
X138197344Y-93367975D01*
X138197178Y-93354296D01*
X138196786Y-93341407D01*
X138196173Y-93330321D01*
X138195347Y-93322047D01*
X138194313Y-93317597D01*
X138193894Y-93317126D01*
X138192524Y-93315122D01*
X138195454Y-93311196D01*
X138199382Y-93308069D01*
X138201972Y-93308910D01*
X138202894Y-93310088D01*
X138205389Y-93312326D01*
X138206835Y-93310516D01*
X138209676Y-93309732D01*
X138217063Y-93309042D01*
X138228310Y-93308448D01*
X138242726Y-93307953D01*
X138259623Y-93307558D01*
X138278313Y-93307267D01*
X138298106Y-93307080D01*
X138318315Y-93307001D01*
X138338249Y-93307032D01*
X138357221Y-93307174D01*
X138374541Y-93307430D01*
X138389522Y-93307802D01*
X138401473Y-93308293D01*
X138409707Y-93308904D01*
X138413535Y-93309638D01*
X138413724Y-93309856D01*
X138415733Y-93312420D01*
X138416364Y-93312497D01*
X138417325Y-93309907D01*
X138418083Y-93302334D01*
X138418624Y-93290073D01*
X138418934Y-93273419D01*
X138419005Y-93258170D01*
X138419074Y-93239048D01*
X138419307Y-93224562D01*
X138419748Y-93214070D01*
X138420436Y-93206929D01*
X138421415Y-93202494D01*
X138422726Y-93200124D01*
X138422778Y-93200071D01*
X138424443Y-93199132D01*
X138427688Y-93198357D01*
X138432962Y-93197732D01*
X138440717Y-93197241D01*
X138451402Y-93196871D01*
X138465469Y-93196606D01*
X138483368Y-93196433D01*
X138505550Y-93196335D01*
X138532465Y-93196299D01*
X138538977Y-93196298D01*
X138651403Y-93196298D01*
X138651403Y-93143701D01*
X138651316Y-93124520D01*
X138651033Y-93110113D01*
X138650525Y-93099975D01*
X138649761Y-93093601D01*
X138648709Y-93090486D01*
X138648125Y-93090011D01*
X138646609Y-93088103D01*
X138649257Y-93084509D01*
X138651348Y-93083002D01*
X138654664Y-93081876D01*
X138659917Y-93081079D01*
X138667818Y-93080556D01*
X138679077Y-93080255D01*
X138694407Y-93080122D01*
X138707993Y-93080099D01*
X138762320Y-93080099D01*
X138762320Y-92966542D01*
X138762320Y-92852984D01*
X138817778Y-92852984D01*
X138836221Y-92852965D01*
X138850046Y-92852865D01*
X138859918Y-92852622D01*
X138866501Y-92852172D01*
X138870459Y-92851452D01*
X138872458Y-92850399D01*
X138873160Y-92848949D01*
X138873237Y-92847702D01*
X138874343Y-92843411D01*
X138875878Y-92842420D01*
X138876654Y-92839896D01*
X138877303Y-92832789D01*
X138877829Y-92821797D01*
X138878232Y-92807617D01*
X138878516Y-92790946D01*
X138878682Y-92772481D01*
X138878734Y-92752920D01*
X138878672Y-92732960D01*
X138878500Y-92713299D01*
X138878220Y-92694634D01*
X138877834Y-92677662D01*
X138877344Y-92663080D01*
X138876753Y-92651587D01*
X138876063Y-92643878D01*
X138875276Y-92640652D01*
X138875218Y-92640613D01*
X138873276Y-92638878D01*
X138875218Y-92637532D01*
X138877995Y-92633901D01*
X138878519Y-92630929D01*
X138878764Y-92629245D01*
X138879941Y-92627982D01*
X138882713Y-92627080D01*
X138887743Y-92626479D01*
X138895693Y-92626118D01*
X138907228Y-92625936D01*
X138923009Y-92625873D01*
X138933977Y-92625868D01*
X138989436Y-92625868D01*
X138989436Y-92456851D01*
X138989436Y-92287835D01*
X139047535Y-92287835D01*
X139105635Y-92287835D01*
X139105635Y-92456851D01*
G37*
G36*
X133121968Y-103551548D02*
G01*
X133121968Y-103582040D01*
X133182953Y-103582040D01*
X133243937Y-103582040D01*
X133243937Y-103612533D01*
X133243937Y-103643025D01*
X133274429Y-103643025D01*
X133304922Y-103643025D01*
X133304922Y-103673517D01*
X133304922Y-103704009D01*
X133335414Y-103704009D01*
X133365906Y-103704009D01*
X133365906Y-103734338D01*
X133365906Y-103764668D01*
X133275954Y-103766355D01*
X133186002Y-103768043D01*
X133184156Y-103796689D01*
X133182311Y-103825336D01*
X133153664Y-103827182D01*
X133125018Y-103829027D01*
X133123172Y-103857674D01*
X133121326Y-103886320D01*
X133092680Y-103888166D01*
X133064033Y-103890012D01*
X133064033Y-104130900D01*
X133064033Y-104371788D01*
X133121968Y-104371788D01*
X133179904Y-104371788D01*
X133181649Y-104312329D01*
X133183394Y-104252869D01*
X133244158Y-104252869D01*
X133304922Y-104252869D01*
X133304922Y-104283027D01*
X133304922Y-104313185D01*
X133275954Y-104315044D01*
X133246986Y-104316902D01*
X133245141Y-104345549D01*
X133243295Y-104374196D01*
X133214649Y-104376041D01*
X133186002Y-104377887D01*
X133184156Y-104406533D01*
X133182311Y-104435180D01*
X133153664Y-104437026D01*
X133125018Y-104438871D01*
X133123172Y-104467518D01*
X133121326Y-104496164D01*
X133092680Y-104498010D01*
X133064033Y-104499856D01*
X133062418Y-104680954D01*
X133060804Y-104862052D01*
X133031926Y-104863907D01*
X133003049Y-104865762D01*
X133003049Y-105320096D01*
X133003049Y-105774429D01*
X133030492Y-105774429D01*
X133057935Y-105774429D01*
X133059780Y-105745783D01*
X133061626Y-105717136D01*
X133090273Y-105715291D01*
X133118919Y-105713445D01*
X133120765Y-105684798D01*
X133122610Y-105656152D01*
X133151257Y-105654306D01*
X133179904Y-105652461D01*
X133181749Y-105623814D01*
X133183595Y-105595168D01*
X133212241Y-105593322D01*
X133240888Y-105591476D01*
X133242734Y-105562830D01*
X133244579Y-105534183D01*
X133273226Y-105532338D01*
X133301872Y-105530492D01*
X133303718Y-105501845D01*
X133305564Y-105473199D01*
X133334210Y-105471353D01*
X133362857Y-105469507D01*
X133364702Y-105440861D01*
X133366548Y-105412214D01*
X133395195Y-105410369D01*
X133423841Y-105408523D01*
X133425691Y-105379772D01*
X133427541Y-105351022D01*
X133486675Y-105349280D01*
X133545810Y-105347539D01*
X133547656Y-105318892D01*
X133549501Y-105290246D01*
X133578148Y-105288400D01*
X133606794Y-105286554D01*
X133608644Y-105257804D01*
X133610494Y-105229053D01*
X133669629Y-105227311D01*
X133728763Y-105225570D01*
X133730609Y-105196923D01*
X133732454Y-105168277D01*
X133761101Y-105166431D01*
X133789748Y-105164586D01*
X133791597Y-105135835D01*
X133793447Y-105107084D01*
X133852582Y-105105343D01*
X133911716Y-105103601D01*
X133913562Y-105074955D01*
X133915408Y-105046308D01*
X133944054Y-105044462D01*
X133972701Y-105042617D01*
X133974103Y-104968053D01*
X134037319Y-104968053D01*
X134042114Y-104979492D01*
X134054122Y-104983711D01*
X134068695Y-104983510D01*
X134094670Y-104981632D01*
X134094670Y-104954189D01*
X134094670Y-104926746D01*
X134067227Y-104926746D01*
X134050292Y-104927295D01*
X134041990Y-104930587D01*
X134038759Y-104939094D01*
X134037829Y-104947147D01*
X134037319Y-104968053D01*
X133974103Y-104968053D01*
X133974386Y-104952992D01*
X133976072Y-104863368D01*
X134004879Y-104861516D01*
X134033685Y-104859664D01*
X134035431Y-104800204D01*
X134037176Y-104740744D01*
X134158924Y-104740744D01*
X134280672Y-104740744D01*
X134280672Y-104771236D01*
X134280672Y-104801728D01*
X134188974Y-104801728D01*
X134097277Y-104801728D01*
X134099023Y-104861188D01*
X134100768Y-104920648D01*
X134158703Y-104920648D01*
X134216638Y-104920648D01*
X134218490Y-104891841D01*
X134220343Y-104863035D01*
X134309967Y-104861349D01*
X134399591Y-104859664D01*
X134401333Y-104800529D01*
X134403075Y-104741395D01*
X134431825Y-104739545D01*
X134460576Y-104737695D01*
X134462317Y-104678560D01*
X134464059Y-104619426D01*
X134492810Y-104617576D01*
X134521560Y-104615726D01*
X134523410Y-104586975D01*
X134525260Y-104558225D01*
X134584395Y-104556483D01*
X134643529Y-104554742D01*
X134645388Y-104525774D01*
X134647247Y-104496806D01*
X134738389Y-104496806D01*
X134829531Y-104496806D01*
X134829531Y-104527136D01*
X134829531Y-104557465D01*
X134739579Y-104559152D01*
X134649627Y-104560840D01*
X134647782Y-104589487D01*
X134645936Y-104618133D01*
X134617290Y-104619979D01*
X134588643Y-104621824D01*
X134586797Y-104650471D01*
X134584952Y-104679118D01*
X134556305Y-104680963D01*
X134527659Y-104682809D01*
X134525813Y-104711455D01*
X134523967Y-104740102D01*
X134495321Y-104741948D01*
X134466674Y-104743793D01*
X134466674Y-104771236D01*
X134466674Y-104798679D01*
X134524609Y-104798679D01*
X134582545Y-104798679D01*
X134584403Y-104769712D01*
X134586262Y-104740744D01*
X134707897Y-104740744D01*
X134829531Y-104740744D01*
X134829531Y-104771073D01*
X134829531Y-104801402D01*
X134739579Y-104803090D01*
X134649627Y-104804778D01*
X134647782Y-104833424D01*
X134645936Y-104862071D01*
X134617290Y-104863916D01*
X134588643Y-104865762D01*
X134588643Y-104893205D01*
X134588643Y-104920648D01*
X134677070Y-104920648D01*
X134765498Y-104920648D01*
X134767357Y-104891680D01*
X134769215Y-104862713D01*
X134829866Y-104862713D01*
X134890516Y-104862713D01*
X134890516Y-104893205D01*
X134890516Y-104923029D01*
X134861548Y-104924888D01*
X134832581Y-104926746D01*
X134830722Y-104955714D01*
X134828863Y-104984682D01*
X134677070Y-104984682D01*
X134525278Y-104984682D01*
X134523419Y-104955714D01*
X134521560Y-104926746D01*
X134402641Y-104926746D01*
X134283721Y-104926746D01*
X134281871Y-104955497D01*
X134280021Y-104984248D01*
X134220887Y-104985989D01*
X134161752Y-104987731D01*
X134159902Y-105016481D01*
X134158053Y-105045232D01*
X134098918Y-105046974D01*
X134039784Y-105048715D01*
X134037938Y-105077362D01*
X134036092Y-105106008D01*
X134007446Y-105107854D01*
X133978799Y-105109700D01*
X133976949Y-105138450D01*
X133975099Y-105167201D01*
X133915965Y-105168942D01*
X133856830Y-105170684D01*
X133854985Y-105199330D01*
X133853139Y-105227977D01*
X133824493Y-105229823D01*
X133795846Y-105231668D01*
X133794000Y-105260315D01*
X133792155Y-105288961D01*
X133763508Y-105290807D01*
X133734862Y-105292653D01*
X133734862Y-105320096D01*
X133734862Y-105347539D01*
X133793996Y-105349280D01*
X133853131Y-105351022D01*
X133854980Y-105379772D01*
X133856830Y-105408523D01*
X133946782Y-105410211D01*
X134036734Y-105411898D01*
X134036734Y-105442228D01*
X134036734Y-105472557D01*
X133915100Y-105472557D01*
X133793465Y-105472557D01*
X133791606Y-105443589D01*
X133789748Y-105414622D01*
X133730613Y-105412880D01*
X133671479Y-105411138D01*
X133669629Y-105382388D01*
X133667779Y-105353637D01*
X133640336Y-105353637D01*
X133612893Y-105353637D01*
X133611043Y-105382388D01*
X133609193Y-105411138D01*
X133550059Y-105412880D01*
X133490924Y-105414622D01*
X133489078Y-105443268D01*
X133487233Y-105471915D01*
X133458586Y-105473760D01*
X133429940Y-105475606D01*
X133428094Y-105504252D01*
X133426248Y-105532899D01*
X133397602Y-105534745D01*
X133368955Y-105536590D01*
X133367110Y-105565237D01*
X133365264Y-105593883D01*
X133336617Y-105595729D01*
X133307971Y-105597575D01*
X133306125Y-105626221D01*
X133304280Y-105654868D01*
X133275633Y-105656713D01*
X133246986Y-105658559D01*
X133245141Y-105687206D01*
X133243295Y-105715852D01*
X133214649Y-105717698D01*
X133186002Y-105719543D01*
X133184156Y-105748190D01*
X133182311Y-105776837D01*
X133153664Y-105778682D01*
X133125018Y-105780528D01*
X133123172Y-105809174D01*
X133121326Y-105837821D01*
X133092680Y-105839667D01*
X133064033Y-105841512D01*
X133062188Y-105870159D01*
X133060342Y-105898805D01*
X133031695Y-105900651D01*
X133003049Y-105902497D01*
X133003049Y-105929940D01*
X133003049Y-105957383D01*
X133032016Y-105959241D01*
X133060984Y-105961100D01*
X133060984Y-105990924D01*
X133060984Y-106020748D01*
X133032016Y-106022607D01*
X133003049Y-106024465D01*
X133003049Y-106295846D01*
X133003049Y-106567227D01*
X133032016Y-106569085D01*
X133060984Y-106570944D01*
X133060984Y-106600768D01*
X133060984Y-106630592D01*
X133032016Y-106632451D01*
X133003049Y-106634309D01*
X133003049Y-106997167D01*
X133003049Y-107360024D01*
X133032016Y-107361882D01*
X133060984Y-107363741D01*
X133060984Y-107393565D01*
X133060984Y-107423389D01*
X133032016Y-107425248D01*
X133003049Y-107427107D01*
X133001418Y-107578043D01*
X132999787Y-107728979D01*
X132969423Y-107728979D01*
X132939059Y-107728979D01*
X132937513Y-106907215D01*
X132935966Y-106085450D01*
X132906998Y-106083591D01*
X132878031Y-106081732D01*
X132878031Y-106051908D01*
X132878031Y-106022085D01*
X132906998Y-106020226D01*
X132935966Y-106018367D01*
X132935966Y-105746986D01*
X132935966Y-105475606D01*
X132907215Y-105473756D01*
X132878465Y-105471906D01*
X132876723Y-105412772D01*
X132874982Y-105353637D01*
X132846335Y-105351791D01*
X132817689Y-105349946D01*
X132815843Y-105321299D01*
X132813997Y-105292653D01*
X132785247Y-105290803D01*
X132756496Y-105288953D01*
X132754754Y-105229818D01*
X132753013Y-105170684D01*
X132724366Y-105168838D01*
X132695720Y-105166993D01*
X132693874Y-105138346D01*
X132692028Y-105109700D01*
X132663278Y-105107850D01*
X132634527Y-105106000D01*
X132632786Y-105046865D01*
X132631044Y-104987731D01*
X132602398Y-104985885D01*
X132573751Y-104984039D01*
X132571905Y-104955393D01*
X132570060Y-104926746D01*
X132541309Y-104924896D01*
X132512558Y-104923047D01*
X132510817Y-104863912D01*
X132509075Y-104804778D01*
X132480429Y-104802932D01*
X132451782Y-104801086D01*
X132449937Y-104772440D01*
X132448091Y-104743793D01*
X132419444Y-104741948D01*
X132390798Y-104740102D01*
X132388952Y-104711455D01*
X132387106Y-104682809D01*
X132358356Y-104680959D01*
X132329605Y-104679109D01*
X132327864Y-104619975D01*
X132326122Y-104560840D01*
X132266988Y-104559098D01*
X132207853Y-104557357D01*
X132206003Y-104528606D01*
X132204153Y-104499856D01*
X132175507Y-104498010D01*
X132146860Y-104496164D01*
X132145015Y-104467518D01*
X132143169Y-104438871D01*
X132085234Y-104438871D01*
X132027299Y-104438871D01*
X132025453Y-104467518D01*
X132023607Y-104496164D01*
X131994961Y-104498010D01*
X131966314Y-104499856D01*
X131964462Y-104528662D01*
X131962610Y-104557468D01*
X131872985Y-104559154D01*
X131783361Y-104560840D01*
X131781502Y-104589808D01*
X131779643Y-104618775D01*
X131688501Y-104618775D01*
X131597359Y-104618775D01*
X131597359Y-104588283D01*
X131597359Y-104558232D01*
X131656818Y-104556487D01*
X131716278Y-104554742D01*
X131718130Y-104525935D01*
X131719982Y-104497129D01*
X131809607Y-104495443D01*
X131899231Y-104493757D01*
X131899231Y-104435822D01*
X131899231Y-104377887D01*
X131809607Y-104376201D01*
X131719982Y-104374515D01*
X131718130Y-104345709D01*
X131716278Y-104316902D01*
X131688835Y-104316902D01*
X131661392Y-104316902D01*
X131659533Y-104345870D01*
X131657675Y-104374838D01*
X131414071Y-104374838D01*
X131170468Y-104374838D01*
X131170468Y-104344436D01*
X131170468Y-104314035D01*
X131351896Y-104312419D01*
X131533325Y-104310804D01*
X131535171Y-104282157D01*
X131537016Y-104253511D01*
X131565663Y-104251665D01*
X131594309Y-104249820D01*
X131594309Y-104191884D01*
X131594309Y-104133949D01*
X131565663Y-104132104D01*
X131537016Y-104130258D01*
X131535171Y-104101611D01*
X131533325Y-104072965D01*
X131504678Y-104071119D01*
X131476032Y-104069274D01*
X131474186Y-104040627D01*
X131472341Y-104011980D01*
X131413206Y-104010239D01*
X131354072Y-104008497D01*
X131352222Y-103979747D01*
X131350372Y-103950996D01*
X131290912Y-103949251D01*
X131231452Y-103947505D01*
X131231452Y-103917234D01*
X131231452Y-103886962D01*
X131322595Y-103886962D01*
X131413737Y-103886962D01*
X131415596Y-103915930D01*
X131417455Y-103944898D01*
X131476589Y-103946639D01*
X131535724Y-103948381D01*
X131537574Y-103977131D01*
X131539423Y-104005882D01*
X131568070Y-104007728D01*
X131596717Y-104009573D01*
X131598562Y-104038220D01*
X131600408Y-104066866D01*
X131629214Y-104068719D01*
X131658021Y-104070571D01*
X131659706Y-104160195D01*
X131661392Y-104249820D01*
X131720527Y-104251561D01*
X131779661Y-104253303D01*
X131781511Y-104282053D01*
X131783361Y-104310804D01*
X131872985Y-104312490D01*
X131962610Y-104314176D01*
X131964462Y-104342982D01*
X131966314Y-104371788D01*
X132085234Y-104371788D01*
X132204153Y-104371788D01*
X132205999Y-104343142D01*
X132207845Y-104314495D01*
X132236491Y-104312650D01*
X132265138Y-104310804D01*
X132265138Y-104283361D01*
X132265138Y-104255918D01*
X132236387Y-104254068D01*
X132207636Y-104252218D01*
X132205895Y-104193084D01*
X132204153Y-104133949D01*
X132175507Y-104132104D01*
X132146860Y-104130258D01*
X132145015Y-104101611D01*
X132143169Y-104072965D01*
X132114522Y-104071119D01*
X132085876Y-104069274D01*
X132084030Y-104040627D01*
X132082185Y-104011980D01*
X131992233Y-104010293D01*
X131902281Y-104008605D01*
X131902281Y-104039260D01*
X131902281Y-104069916D01*
X131871788Y-104069916D01*
X131841296Y-104069916D01*
X131841296Y-103992303D01*
X132146802Y-103992303D01*
X132151598Y-104003742D01*
X132163606Y-104007961D01*
X132178179Y-104007760D01*
X132204153Y-104005882D01*
X132204153Y-103978439D01*
X132204153Y-103950996D01*
X132176710Y-103950996D01*
X132159776Y-103951544D01*
X132151474Y-103954836D01*
X132148243Y-103963344D01*
X132147313Y-103971397D01*
X132146802Y-103992303D01*
X131841296Y-103992303D01*
X131841296Y-103978439D01*
X131841296Y-103886962D01*
X131932773Y-103886962D01*
X132024249Y-103886962D01*
X132024249Y-103917675D01*
X132024249Y-103948389D01*
X132083709Y-103946643D01*
X132143169Y-103944898D01*
X132143169Y-103917455D01*
X132143169Y-103890012D01*
X132114201Y-103888153D01*
X132085234Y-103886294D01*
X132085234Y-103856136D01*
X132085234Y-103825978D01*
X132145884Y-103825978D01*
X132206534Y-103825978D01*
X132208393Y-103854946D01*
X132210252Y-103883913D01*
X132239058Y-103885765D01*
X132267865Y-103887618D01*
X132269550Y-103977242D01*
X132271236Y-104066866D01*
X132300204Y-104068725D01*
X132329171Y-104070584D01*
X132329171Y-104222377D01*
X132329171Y-104374169D01*
X132300204Y-104376028D01*
X132271236Y-104377887D01*
X132271236Y-104435822D01*
X132271236Y-104493757D01*
X132299883Y-104495603D01*
X132328529Y-104497448D01*
X132330375Y-104526095D01*
X132332221Y-104554742D01*
X132360867Y-104556587D01*
X132389514Y-104558433D01*
X132391359Y-104587079D01*
X132393205Y-104615726D01*
X132421851Y-104617572D01*
X132450498Y-104619417D01*
X132452344Y-104648064D01*
X132454189Y-104676710D01*
X132482940Y-104678560D01*
X132511691Y-104680410D01*
X132513432Y-104739545D01*
X132515174Y-104798679D01*
X132543820Y-104800525D01*
X132572467Y-104802370D01*
X132574312Y-104831017D01*
X132576158Y-104859664D01*
X132604909Y-104861513D01*
X132633659Y-104863363D01*
X132635401Y-104922498D01*
X132637143Y-104981632D01*
X132665789Y-104983478D01*
X132694436Y-104985324D01*
X132696281Y-105013970D01*
X132698127Y-105042617D01*
X132726773Y-105044462D01*
X132755420Y-105046308D01*
X132757266Y-105074955D01*
X132759111Y-105103601D01*
X132787862Y-105105451D01*
X132816613Y-105107301D01*
X132818354Y-105166435D01*
X132820096Y-105225570D01*
X132848742Y-105227416D01*
X132877389Y-105229261D01*
X132879234Y-105257908D01*
X132881080Y-105286554D01*
X132908523Y-105286554D01*
X132935966Y-105286554D01*
X132937560Y-105044473D01*
X132939155Y-104802391D01*
X132968053Y-104800535D01*
X132996950Y-104798679D01*
X132996950Y-104557791D01*
X132996950Y-104316902D01*
X132968304Y-104315057D01*
X132939657Y-104313211D01*
X132937812Y-104284565D01*
X132935966Y-104255918D01*
X132876506Y-104254173D01*
X132817046Y-104252427D01*
X132817046Y-104222156D01*
X132817046Y-104191884D01*
X132877697Y-104191884D01*
X132938347Y-104191884D01*
X132940206Y-104220852D01*
X132942064Y-104249820D01*
X132969507Y-104249820D01*
X132996950Y-104249820D01*
X132996950Y-104100408D01*
X132996950Y-103950996D01*
X132968200Y-103949146D01*
X132939449Y-103947296D01*
X132937708Y-103888162D01*
X132935966Y-103829027D01*
X132906998Y-103827169D01*
X132878031Y-103825310D01*
X132878031Y-103764660D01*
X132878031Y-103760928D01*
X132878031Y-103704009D01*
X132939015Y-103704009D01*
X132939015Y-103760928D01*
X132939455Y-103786216D01*
X132940633Y-103806744D01*
X132942341Y-103819562D01*
X132943368Y-103822199D01*
X132951715Y-103824542D01*
X132967149Y-103825021D01*
X132972335Y-103824740D01*
X132996950Y-103822929D01*
X132998696Y-103763469D01*
X133000441Y-103704009D01*
X132969728Y-103704009D01*
X132939015Y-103704009D01*
X132878031Y-103704009D01*
X132817046Y-103704009D01*
X132756062Y-103704009D01*
X132756062Y-103699944D01*
X132756062Y-103673517D01*
X132756062Y-103643025D01*
X132817046Y-103643025D01*
X132878031Y-103643025D01*
X133060984Y-103643025D01*
X133060984Y-103699944D01*
X133061416Y-103725220D01*
X133062574Y-103745727D01*
X133064252Y-103758517D01*
X133065262Y-103761141D01*
X133072890Y-103762853D01*
X133089703Y-103763835D01*
X133112705Y-103763956D01*
X133124722Y-103763682D01*
X133179904Y-103761944D01*
X133181649Y-103702485D01*
X133183394Y-103643025D01*
X133122189Y-103643025D01*
X133060984Y-103643025D01*
X132878031Y-103643025D01*
X132878031Y-103612533D01*
X132878031Y-103582040D01*
X132939015Y-103582040D01*
X133000000Y-103582040D01*
X133000000Y-103551548D01*
X133000000Y-103521056D01*
X133060984Y-103521056D01*
X133121968Y-103521056D01*
X133121968Y-103551548D01*
G37*
G36*
X134219688Y-105503049D02*
G01*
X134219688Y-105533541D01*
X134128211Y-105533541D01*
X134036734Y-105533541D01*
X134036734Y-105503049D01*
X134036734Y-105472557D01*
X134128211Y-105472557D01*
X134219688Y-105472557D01*
X134219688Y-105503049D01*
G37*
G36*
X135134453Y-104801728D02*
G01*
X135134453Y-104862713D01*
X135103961Y-104862713D01*
X135073469Y-104862713D01*
X135073469Y-104893205D01*
X135073469Y-104923697D01*
X135042977Y-104923697D01*
X135012485Y-104923697D01*
X135012485Y-104954189D01*
X135012485Y-104984682D01*
X134981992Y-104984682D01*
X134951500Y-104984682D01*
X134951500Y-105015174D01*
X134951500Y-105045666D01*
X134921008Y-105045666D01*
X134890516Y-105045666D01*
X134890516Y-104984347D01*
X134890516Y-104923697D01*
X134921008Y-104923697D01*
X134951500Y-104923697D01*
X134951500Y-104862713D01*
X134951500Y-104801728D01*
X135012485Y-104801728D01*
X135073469Y-104801728D01*
X135073469Y-104771236D01*
X135073469Y-104740744D01*
X135103961Y-104740744D01*
X135134453Y-104740744D01*
X135134453Y-104801728D01*
G37*
G36*
X131597359Y-104527519D02*
G01*
X131597359Y-104557791D01*
X131566866Y-104557791D01*
X131536374Y-104557791D01*
X131536374Y-104527299D01*
X131536374Y-104496806D01*
X131566866Y-104496806D01*
X131597359Y-104496806D01*
X131597359Y-104527519D01*
G37*
G36*
X132817046Y-104161392D02*
G01*
X132817046Y-104191884D01*
X132786554Y-104191884D01*
X132756062Y-104191884D01*
X132756062Y-104161392D01*
X132756062Y-104130900D01*
X132786554Y-104130900D01*
X132817046Y-104130900D01*
X132817046Y-104161392D01*
G37*
G36*
X131597359Y-104740744D02*
G01*
X131597359Y-104801728D01*
X131566866Y-104801728D01*
X131536374Y-104801728D01*
X131536374Y-104832221D01*
X131536374Y-104862713D01*
X131475390Y-104862713D01*
X131414405Y-104862713D01*
X131414405Y-104832221D01*
X131414405Y-104801728D01*
X131444898Y-104801728D01*
X131475390Y-104801728D01*
X131475390Y-104771236D01*
X131475390Y-104740744D01*
X131505882Y-104740744D01*
X131536374Y-104740744D01*
X131536374Y-104710252D01*
X131536374Y-104679760D01*
X131566866Y-104679760D01*
X131597359Y-104679760D01*
X131597359Y-104740744D01*
G37*
G36*
X131048499Y-104344345D02*
G01*
X131048499Y-104374838D01*
X131018007Y-104374838D01*
X130987515Y-104374838D01*
X130987515Y-104405330D01*
X130987515Y-104435822D01*
X131018007Y-104435822D01*
X131048499Y-104435822D01*
X131048499Y-104466314D01*
X131048499Y-104496806D01*
X131109483Y-104496806D01*
X131170468Y-104496806D01*
X131170468Y-104557791D01*
X131170468Y-104618775D01*
X131139976Y-104618775D01*
X131109483Y-104618775D01*
X131109483Y-104649267D01*
X131109483Y-104679760D01*
X131078991Y-104679760D01*
X131048499Y-104679760D01*
X131048499Y-104618775D01*
X131048499Y-104557791D01*
X131018007Y-104557791D01*
X130987515Y-104557791D01*
X130987515Y-104527299D01*
X130987515Y-104496806D01*
X130957022Y-104496806D01*
X130926530Y-104496806D01*
X130926530Y-104435822D01*
X130926530Y-104374838D01*
X130957022Y-104374838D01*
X130987515Y-104374838D01*
X130987515Y-104344345D01*
X130987515Y-104313853D01*
X131018007Y-104313853D01*
X131048499Y-104313853D01*
X131048499Y-104344345D01*
G37*
G36*
X131475390Y-104649267D02*
G01*
X131475390Y-104679760D01*
X131444898Y-104679760D01*
X131414405Y-104679760D01*
X131414405Y-104649267D01*
X131414405Y-104618775D01*
X131444898Y-104618775D01*
X131475390Y-104618775D01*
X131475390Y-104649267D01*
G37*
G36*
X134097719Y-104588283D02*
G01*
X134097719Y-104618775D01*
X134067227Y-104618775D01*
X134036734Y-104618775D01*
X134036734Y-104588283D01*
X134036734Y-104557791D01*
X134067227Y-104557791D01*
X134097719Y-104557791D01*
X134097719Y-104588283D01*
G37*
G36*
X134951500Y-104588283D02*
G01*
X134951500Y-104618775D01*
X134921008Y-104618775D01*
X134890516Y-104618775D01*
X134890516Y-104588283D01*
X134890516Y-104557791D01*
X134921008Y-104557791D01*
X134951500Y-104557791D01*
X134951500Y-104588283D01*
G37*
G36*
X131048499Y-103978439D02*
G01*
X131048499Y-104008931D01*
X131139976Y-104008931D01*
X131231452Y-104008931D01*
X131231452Y-104069916D01*
X131231452Y-104130900D01*
X131200960Y-104130900D01*
X131170468Y-104130900D01*
X131170468Y-104161392D01*
X131170468Y-104191884D01*
X131109483Y-104191884D01*
X131048499Y-104191884D01*
X131048499Y-104161392D01*
X131048499Y-104130900D01*
X131018007Y-104130900D01*
X130987515Y-104130900D01*
X130987515Y-104100408D01*
X130987515Y-104069916D01*
X130957022Y-104069916D01*
X130926530Y-104069916D01*
X130926530Y-104039423D01*
X130926530Y-104008931D01*
X130957022Y-104008931D01*
X130987515Y-104008931D01*
X130987515Y-103978439D01*
X130987515Y-103947947D01*
X131018007Y-103947947D01*
X131048499Y-103947947D01*
X131048499Y-103978439D01*
G37*
G36*
X133304922Y-104161392D02*
G01*
X133304922Y-104191884D01*
X133274429Y-104191884D01*
X133243937Y-104191884D01*
X133243937Y-104161392D01*
X133243937Y-104130900D01*
X133274429Y-104130900D01*
X133304922Y-104130900D01*
X133304922Y-104161392D01*
G37*
G36*
X131353421Y-103734501D02*
G01*
X131353421Y-103764994D01*
X131322929Y-103764994D01*
X131292437Y-103764994D01*
X131292437Y-103734501D01*
X131292437Y-103704009D01*
X131322929Y-103704009D01*
X131353421Y-103704009D01*
X131353421Y-103734501D01*
G37*
G36*
X132146218Y-103734501D02*
G01*
X132146218Y-103764994D01*
X132115726Y-103764994D01*
X132085234Y-103764994D01*
X132085234Y-103734501D01*
X132085234Y-103704009D01*
X132115726Y-103704009D01*
X132146218Y-103704009D01*
X132146218Y-103734501D01*
G37*
G36*
X133000000Y-103429579D02*
G01*
X133000000Y-103460072D01*
X132969507Y-103460072D01*
X132939015Y-103460072D01*
X132939015Y-103429579D01*
X132939015Y-103399087D01*
X132969507Y-103399087D01*
X133000000Y-103399087D01*
X133000000Y-103429579D01*
G37*
G36*
X132105635Y-94844208D02*
G01*
X132105635Y-94902308D01*
X132047535Y-94902308D01*
X131989436Y-94902308D01*
X131989436Y-94844208D01*
X131989436Y-94786109D01*
X132047535Y-94786109D01*
X132105635Y-94786109D01*
X132105635Y-94844208D01*
G37*
G36*
X130987565Y-94310824D02*
G01*
X131001583Y-94311077D01*
X131011638Y-94311552D01*
X131018387Y-94312294D01*
X131022489Y-94313349D01*
X131024382Y-94314523D01*
X131025774Y-94318416D01*
X131026883Y-94326348D01*
X131027704Y-94337290D01*
X131028231Y-94350213D01*
X131028461Y-94364087D01*
X131028387Y-94377885D01*
X131028004Y-94390576D01*
X131027307Y-94401133D01*
X131026291Y-94408525D01*
X131024950Y-94411726D01*
X131024877Y-94411756D01*
X131023361Y-94413664D01*
X131026009Y-94417258D01*
X131028155Y-94418800D01*
X131031557Y-94419941D01*
X131036946Y-94420740D01*
X131045055Y-94421254D01*
X131056614Y-94421540D01*
X131072353Y-94421655D01*
X131082104Y-94421667D01*
X131133790Y-94421667D01*
X131133790Y-94474485D01*
X131133790Y-94527303D01*
X131186608Y-94527303D01*
X131239425Y-94527303D01*
X131239425Y-94582761D01*
X131239425Y-94638220D01*
X131186608Y-94638220D01*
X131133790Y-94638220D01*
X131133790Y-94691037D01*
X131133790Y-94743855D01*
X131080972Y-94743855D01*
X131028155Y-94743855D01*
X131028155Y-94796673D01*
X131028155Y-94849490D01*
X130972696Y-94849490D01*
X130917238Y-94849490D01*
X130917238Y-94796673D01*
X130917238Y-94743855D01*
X130861779Y-94743855D01*
X130806321Y-94743855D01*
X130806321Y-94691037D01*
X130806321Y-94638220D01*
X130757276Y-94638220D01*
X130739126Y-94638139D01*
X130725582Y-94637865D01*
X130715970Y-94637350D01*
X130709617Y-94636545D01*
X130705849Y-94635403D01*
X130704458Y-94634447D01*
X130703103Y-94632076D01*
X130702098Y-94627616D01*
X130701399Y-94620408D01*
X130700960Y-94609795D01*
X130700738Y-94595118D01*
X130700698Y-94582761D01*
X130811603Y-94582761D01*
X130811603Y-94632938D01*
X130864420Y-94632938D01*
X130882361Y-94632959D01*
X130895701Y-94633066D01*
X130905120Y-94633329D01*
X130911299Y-94633815D01*
X130914919Y-94634592D01*
X130916660Y-94635728D01*
X130917203Y-94637291D01*
X130917238Y-94638220D01*
X130918344Y-94642511D01*
X130919879Y-94643501D01*
X130920909Y-94646076D01*
X130921704Y-94653547D01*
X130922242Y-94665530D01*
X130922500Y-94681645D01*
X130922520Y-94688396D01*
X130922368Y-94705907D01*
X130921929Y-94719424D01*
X130921224Y-94728566D01*
X130920276Y-94732951D01*
X130919879Y-94733291D01*
X130917315Y-94735301D01*
X130917238Y-94735932D01*
X130919826Y-94736903D01*
X130927385Y-94737667D01*
X130939609Y-94738208D01*
X130956191Y-94738511D01*
X130970055Y-94738573D01*
X131022873Y-94738573D01*
X131022873Y-94685756D01*
X131022873Y-94632938D01*
X131075691Y-94632938D01*
X131128508Y-94632938D01*
X131128508Y-94582761D01*
X131128508Y-94532584D01*
X131075691Y-94532584D01*
X131022873Y-94532584D01*
X131022873Y-94477126D01*
X131022873Y-94421667D01*
X130970055Y-94421667D01*
X130952115Y-94421688D01*
X130938775Y-94421796D01*
X130929356Y-94422058D01*
X130923176Y-94422544D01*
X130919557Y-94423321D01*
X130917816Y-94424457D01*
X130917273Y-94426020D01*
X130917238Y-94426949D01*
X130918344Y-94431240D01*
X130919879Y-94432231D01*
X130920868Y-94434815D01*
X130921642Y-94442348D01*
X130922182Y-94454502D01*
X130922473Y-94470946D01*
X130922520Y-94482408D01*
X130922520Y-94532584D01*
X130867061Y-94532584D01*
X130811603Y-94532584D01*
X130811603Y-94582761D01*
X130700698Y-94582761D01*
X130700686Y-94578988D01*
X130700686Y-94532584D01*
X130700686Y-94527303D01*
X130753503Y-94527303D01*
X130806321Y-94527303D01*
X130806321Y-94474485D01*
X130806321Y-94421667D01*
X130858007Y-94421667D01*
X130876648Y-94421593D01*
X130890666Y-94421341D01*
X130900721Y-94420866D01*
X130907470Y-94420123D01*
X130911572Y-94419068D01*
X130913465Y-94417895D01*
X130914820Y-94415524D01*
X130915825Y-94411064D01*
X130916524Y-94403856D01*
X130916963Y-94393243D01*
X130917185Y-94378566D01*
X130917238Y-94362436D01*
X130917238Y-94310750D01*
X130968924Y-94310750D01*
X130987565Y-94310824D01*
G37*
G36*
X133130297Y-94440154D02*
G01*
X133130297Y-94495612D01*
X133184623Y-94495612D01*
X133203746Y-94495681D01*
X133218232Y-94495914D01*
X133228724Y-94496354D01*
X133235865Y-94497043D01*
X133240299Y-94498022D01*
X133242670Y-94499333D01*
X133242723Y-94499385D01*
X133244046Y-94501695D01*
X133245036Y-94506047D01*
X133245734Y-94513083D01*
X133246182Y-94523448D01*
X133246422Y-94537784D01*
X133246495Y-94556735D01*
X133246495Y-94557484D01*
X133246495Y-94611811D01*
X133192169Y-94611811D01*
X133173046Y-94611879D01*
X133158560Y-94612113D01*
X133148068Y-94612553D01*
X133140927Y-94613242D01*
X133136493Y-94614221D01*
X133134122Y-94615532D01*
X133134069Y-94615584D01*
X133132746Y-94617894D01*
X133131756Y-94622246D01*
X133131058Y-94629282D01*
X133130610Y-94639647D01*
X133130370Y-94653983D01*
X133130297Y-94672934D01*
X133130297Y-94673683D01*
X133130297Y-94728010D01*
X133072197Y-94728010D01*
X133014098Y-94728010D01*
X133014098Y-94669910D01*
X133014098Y-94611811D01*
X133019380Y-94611811D01*
X133072197Y-94611811D01*
X133125015Y-94611811D01*
X133125015Y-94558993D01*
X133125144Y-94539575D01*
X133125522Y-94524303D01*
X133126133Y-94513483D01*
X133126963Y-94507422D01*
X133127656Y-94506176D01*
X133130220Y-94504166D01*
X133130297Y-94503535D01*
X133127705Y-94502581D01*
X133120122Y-94501827D01*
X133107835Y-94501287D01*
X133091130Y-94500973D01*
X133074838Y-94500894D01*
X133019380Y-94500894D01*
X133019380Y-94556352D01*
X133019380Y-94611811D01*
X133014098Y-94611811D01*
X132958639Y-94611811D01*
X132903181Y-94611811D01*
X132903181Y-94556352D01*
X132903181Y-94553711D01*
X132903181Y-94495612D01*
X132958639Y-94495612D01*
X133014098Y-94495612D01*
X133014098Y-94440154D01*
X133014098Y-94384695D01*
X133072197Y-94384695D01*
X133130297Y-94384695D01*
X133130297Y-94440154D01*
G37*
G36*
X132105635Y-92456851D02*
G01*
X132105635Y-92625868D01*
X132159961Y-92625868D01*
X132178576Y-92625915D01*
X132192620Y-92626093D01*
X132202806Y-92626455D01*
X132209845Y-92627053D01*
X132214447Y-92627943D01*
X132217324Y-92629176D01*
X132218697Y-92630277D01*
X132221371Y-92633993D01*
X132219829Y-92635779D01*
X132217338Y-92638559D01*
X132216614Y-92642965D01*
X132217803Y-92646424D01*
X132219192Y-92646995D01*
X132219965Y-92649519D01*
X132220613Y-92656624D01*
X132221137Y-92667614D01*
X132221540Y-92681790D01*
X132221824Y-92698453D01*
X132221992Y-92716906D01*
X132222045Y-92736450D01*
X132221986Y-92756388D01*
X132221817Y-92776021D01*
X132221541Y-92794650D01*
X132221158Y-92811579D01*
X132220673Y-92826108D01*
X132220086Y-92837540D01*
X132219400Y-92845177D01*
X132218617Y-92848319D01*
X132218556Y-92848354D01*
X132217039Y-92850262D01*
X132219688Y-92853856D01*
X132223282Y-92856159D01*
X132229162Y-92857535D01*
X132238455Y-92858166D01*
X132246733Y-92858265D01*
X132257731Y-92857976D01*
X132265527Y-92857178D01*
X132269202Y-92855979D01*
X132269369Y-92855624D01*
X132271785Y-92854207D01*
X132278186Y-92853288D01*
X132287300Y-92852842D01*
X132297857Y-92852846D01*
X132308585Y-92853275D01*
X132318213Y-92854106D01*
X132325470Y-92855314D01*
X132328978Y-92856756D01*
X132329927Y-92858437D01*
X132330709Y-92861708D01*
X132331337Y-92867025D01*
X132331828Y-92874843D01*
X132332197Y-92885618D01*
X132332458Y-92899807D01*
X132332628Y-92917865D01*
X132332720Y-92940249D01*
X132332750Y-92967415D01*
X132332750Y-92970314D01*
X132332750Y-93080099D01*
X132387077Y-93080099D01*
X132406200Y-93080168D01*
X132420685Y-93080401D01*
X132431177Y-93080842D01*
X132438319Y-93081530D01*
X132442753Y-93082509D01*
X132445123Y-93083820D01*
X132445176Y-93083872D01*
X132446500Y-93086182D01*
X132447489Y-93090534D01*
X132448187Y-93097571D01*
X132448636Y-93107936D01*
X132448876Y-93122272D01*
X132448949Y-93141223D01*
X132448949Y-93141972D01*
X132448949Y-93196298D01*
X132558734Y-93196298D01*
X132586387Y-93196323D01*
X132609213Y-93196409D01*
X132627671Y-93196570D01*
X132642214Y-93196822D01*
X132653300Y-93197179D01*
X132661384Y-93197658D01*
X132666923Y-93198273D01*
X132670371Y-93199039D01*
X132672186Y-93199971D01*
X132672292Y-93200071D01*
X132673616Y-93202381D01*
X132674605Y-93206733D01*
X132675303Y-93213770D01*
X132675751Y-93224134D01*
X132675991Y-93238471D01*
X132676065Y-93257422D01*
X132676065Y-93258170D01*
X132676191Y-93277935D01*
X132676559Y-93293529D01*
X132677155Y-93304657D01*
X132677965Y-93311024D01*
X132678706Y-93312497D01*
X132681270Y-93310487D01*
X132681347Y-93309856D01*
X132683968Y-93309123D01*
X132691756Y-93308505D01*
X132704596Y-93308004D01*
X132722375Y-93307623D01*
X132744978Y-93307365D01*
X132772291Y-93307233D01*
X132788491Y-93307215D01*
X132815790Y-93307241D01*
X132838268Y-93307330D01*
X132856389Y-93307496D01*
X132870612Y-93307756D01*
X132881401Y-93308126D01*
X132889216Y-93308621D01*
X132894518Y-93309257D01*
X132897771Y-93310050D01*
X132899408Y-93310988D01*
X132900731Y-93313298D01*
X132901721Y-93317650D01*
X132902419Y-93324687D01*
X132902867Y-93335051D01*
X132903107Y-93349388D01*
X132903181Y-93368339D01*
X132903181Y-93369087D01*
X132903181Y-93423414D01*
X133016739Y-93423414D01*
X133130297Y-93423414D01*
X133130297Y-93481513D01*
X133130297Y-93539613D01*
X133017871Y-93539613D01*
X132990341Y-93539628D01*
X132967613Y-93539687D01*
X132949209Y-93539807D01*
X132934649Y-93540007D01*
X132923454Y-93540304D01*
X132915145Y-93540716D01*
X132909241Y-93541263D01*
X132905265Y-93541961D01*
X132902737Y-93542828D01*
X132901178Y-93543884D01*
X132901035Y-93544022D01*
X132898361Y-93547738D01*
X132899903Y-93549524D01*
X132901126Y-93551358D01*
X132902032Y-93556275D01*
X132902653Y-93564785D01*
X132903022Y-93577401D01*
X132903173Y-93594636D01*
X132903181Y-93600573D01*
X132903181Y-93650530D01*
X132789623Y-93650530D01*
X132676065Y-93650530D01*
X132676065Y-93708629D01*
X132676065Y-93766729D01*
X132562507Y-93766729D01*
X132448949Y-93766729D01*
X132448949Y-93821055D01*
X132448881Y-93840178D01*
X132448647Y-93854664D01*
X132448207Y-93865156D01*
X132447518Y-93872297D01*
X132446539Y-93876731D01*
X132445228Y-93879102D01*
X132445176Y-93879155D01*
X132442866Y-93880478D01*
X132438514Y-93881468D01*
X132431478Y-93882166D01*
X132421113Y-93882614D01*
X132406777Y-93882854D01*
X132387826Y-93882927D01*
X132387077Y-93882927D01*
X132332750Y-93882927D01*
X132332750Y-93993845D01*
X132332750Y-94104762D01*
X132277292Y-94104762D01*
X132221833Y-94104762D01*
X132221833Y-94217188D01*
X132221809Y-94245190D01*
X132221726Y-94268361D01*
X132221570Y-94287151D01*
X132221326Y-94302012D01*
X132220980Y-94313393D01*
X132220517Y-94321746D01*
X132219922Y-94327520D01*
X132219181Y-94331167D01*
X132218279Y-94333136D01*
X132218061Y-94333386D01*
X132215750Y-94334710D01*
X132211399Y-94335699D01*
X132204362Y-94336397D01*
X132193997Y-94336846D01*
X132179661Y-94337085D01*
X132160710Y-94337159D01*
X132159961Y-94337159D01*
X132105635Y-94337159D01*
X132105635Y-94506176D01*
X132105635Y-94675192D01*
X132047535Y-94675192D01*
X131989436Y-94675192D01*
X131989436Y-94506176D01*
X131989436Y-94337159D01*
X131935109Y-94337159D01*
X131916495Y-94337112D01*
X131902450Y-94336934D01*
X131892264Y-94336572D01*
X131885226Y-94335973D01*
X131880623Y-94335084D01*
X131877746Y-94333851D01*
X131876373Y-94332750D01*
X131873699Y-94329034D01*
X131875241Y-94327248D01*
X131876178Y-94324385D01*
X131876974Y-94316920D01*
X131877630Y-94305531D01*
X131878149Y-94290896D01*
X131878531Y-94273692D01*
X131878778Y-94254597D01*
X131878892Y-94234289D01*
X131878874Y-94213447D01*
X131878726Y-94192747D01*
X131878449Y-94172868D01*
X131878045Y-94154487D01*
X131877516Y-94138282D01*
X131876862Y-94124932D01*
X131876086Y-94115113D01*
X131875189Y-94109504D01*
X131874746Y-94108534D01*
X131872436Y-94107211D01*
X131868084Y-94106221D01*
X131861047Y-94105523D01*
X131850683Y-94105075D01*
X131836346Y-94104835D01*
X131817395Y-94104762D01*
X131816647Y-94104762D01*
X131762320Y-94104762D01*
X131762320Y-93991204D01*
X131762320Y-93877646D01*
X131706861Y-93877646D01*
X131651403Y-93877646D01*
X131651403Y-93822187D01*
X131651403Y-93766729D01*
X131538977Y-93766729D01*
X131510975Y-93766704D01*
X131487804Y-93766621D01*
X131469013Y-93766465D01*
X131454153Y-93766222D01*
X131442771Y-93765876D01*
X131434419Y-93765412D01*
X131428645Y-93764818D01*
X131424998Y-93764076D01*
X131423028Y-93763174D01*
X131422778Y-93762956D01*
X131421455Y-93760646D01*
X131420465Y-93756294D01*
X131419767Y-93749257D01*
X131419319Y-93738892D01*
X131419079Y-93724556D01*
X131419005Y-93705605D01*
X131419005Y-93704857D01*
X131419005Y-93650530D01*
X131305447Y-93650530D01*
X131191890Y-93650530D01*
X131191890Y-93602994D01*
X131192033Y-93584830D01*
X131192450Y-93570715D01*
X131193120Y-93561001D01*
X131194025Y-93556044D01*
X131194530Y-93555458D01*
X131196877Y-93553533D01*
X131196696Y-93549117D01*
X131194179Y-93544248D01*
X131193399Y-93543386D01*
X131191710Y-93542432D01*
X131188428Y-93541647D01*
X131183093Y-93541017D01*
X131175247Y-93540526D01*
X131164432Y-93540158D01*
X131150189Y-93539898D01*
X131132061Y-93539731D01*
X131109588Y-93539641D01*
X131082312Y-93539613D01*
X131080972Y-93539613D01*
X131053471Y-93539587D01*
X131030793Y-93539501D01*
X131012480Y-93539337D01*
X130998073Y-93539082D01*
X130987115Y-93538719D01*
X130979146Y-93538234D01*
X130973708Y-93537610D01*
X130970344Y-93536833D01*
X130968594Y-93535887D01*
X130968546Y-93535840D01*
X130967085Y-93531757D01*
X130965941Y-93523431D01*
X130965112Y-93511893D01*
X130964600Y-93498173D01*
X130964405Y-93483301D01*
X130964419Y-93481513D01*
X131197171Y-93481513D01*
X131197171Y-93534331D01*
X131310729Y-93534331D01*
X131424287Y-93534331D01*
X131424287Y-93592430D01*
X131424287Y-93650530D01*
X131537845Y-93650530D01*
X131651403Y-93650530D01*
X131651403Y-93705988D01*
X131651403Y-93761447D01*
X131705730Y-93761447D01*
X131724852Y-93761515D01*
X131739338Y-93761749D01*
X131749830Y-93762189D01*
X131756971Y-93762878D01*
X131761406Y-93763857D01*
X131763776Y-93765168D01*
X131763829Y-93765220D01*
X131765152Y-93767530D01*
X131766142Y-93771882D01*
X131766840Y-93778918D01*
X131767288Y-93789283D01*
X131767528Y-93803619D01*
X131767602Y-93822570D01*
X131767602Y-93823319D01*
X131767602Y-93877646D01*
X131823060Y-93877646D01*
X131878519Y-93877646D01*
X131878519Y-93991204D01*
X131878519Y-94104762D01*
X131936618Y-94104762D01*
X131994718Y-94104762D01*
X131994718Y-94218319D01*
X131994718Y-94331877D01*
X132047535Y-94331877D01*
X132100353Y-94331877D01*
X132100353Y-94218319D01*
X132100353Y-94104762D01*
X132158452Y-94104762D01*
X132216552Y-94104762D01*
X132216552Y-93991204D01*
X132216552Y-93877646D01*
X132272010Y-93877646D01*
X132327469Y-93877646D01*
X132327469Y-93819546D01*
X132327469Y-93761447D01*
X132385568Y-93761447D01*
X132443667Y-93761447D01*
X132443667Y-93705988D01*
X132443667Y-93650530D01*
X132557225Y-93650530D01*
X132670783Y-93650530D01*
X132670783Y-93592430D01*
X132670783Y-93534331D01*
X132784341Y-93534331D01*
X132897899Y-93534331D01*
X132897899Y-93481513D01*
X132897899Y-93428696D01*
X132784341Y-93428696D01*
X132670783Y-93428696D01*
X132670783Y-93370596D01*
X132670783Y-93312497D01*
X132557225Y-93312497D01*
X132443667Y-93312497D01*
X132443667Y-93257039D01*
X132443667Y-93201580D01*
X132385568Y-93201580D01*
X132327469Y-93201580D01*
X132327469Y-93143481D01*
X132327469Y-93085381D01*
X132272010Y-93085381D01*
X132216552Y-93085381D01*
X132216552Y-92971823D01*
X132216552Y-92858265D01*
X132158452Y-92858265D01*
X132100353Y-92858265D01*
X132100353Y-92744707D01*
X132100353Y-92631150D01*
X132047535Y-92631150D01*
X131994718Y-92631150D01*
X131994718Y-92744707D01*
X131994718Y-92858265D01*
X131936618Y-92858265D01*
X131878519Y-92858265D01*
X131878519Y-92971823D01*
X131878519Y-93085381D01*
X131823060Y-93085381D01*
X131767602Y-93085381D01*
X131767602Y-93143481D01*
X131767602Y-93201580D01*
X131709502Y-93201580D01*
X131651403Y-93201580D01*
X131651403Y-93257039D01*
X131651403Y-93312497D01*
X131537845Y-93312497D01*
X131424287Y-93312497D01*
X131424287Y-93370596D01*
X131424287Y-93428696D01*
X131310729Y-93428696D01*
X131197171Y-93428696D01*
X131197171Y-93481513D01*
X130964419Y-93481513D01*
X130964526Y-93468307D01*
X130964963Y-93454222D01*
X130965716Y-93442074D01*
X130966786Y-93432896D01*
X130967910Y-93428696D01*
X130968172Y-93427715D01*
X130968546Y-93427187D01*
X130970228Y-93426237D01*
X130973498Y-93425456D01*
X130978815Y-93424827D01*
X130986633Y-93424336D01*
X130997408Y-93423967D01*
X131011597Y-93423706D01*
X131029655Y-93423537D01*
X131052039Y-93423445D01*
X131079205Y-93423414D01*
X131082104Y-93423414D01*
X131109038Y-93423408D01*
X131131163Y-93423375D01*
X131148952Y-93423293D01*
X131162877Y-93423138D01*
X131173412Y-93422888D01*
X131181029Y-93422519D01*
X131186200Y-93422011D01*
X131189399Y-93421338D01*
X131191099Y-93420480D01*
X131191771Y-93419413D01*
X131191890Y-93418132D01*
X131192995Y-93413841D01*
X131194530Y-93412851D01*
X131195601Y-93410382D01*
X131196411Y-93403649D01*
X131196967Y-93393662D01*
X131197276Y-93381434D01*
X131197344Y-93367975D01*
X131197178Y-93354296D01*
X131196786Y-93341407D01*
X131196173Y-93330321D01*
X131195347Y-93322047D01*
X131194313Y-93317597D01*
X131193894Y-93317126D01*
X131192524Y-93315122D01*
X131195454Y-93311196D01*
X131199382Y-93308069D01*
X131201972Y-93308910D01*
X131202894Y-93310088D01*
X131205389Y-93312326D01*
X131206835Y-93310516D01*
X131209676Y-93309732D01*
X131217063Y-93309042D01*
X131228310Y-93308448D01*
X131242726Y-93307953D01*
X131259623Y-93307558D01*
X131278313Y-93307267D01*
X131298106Y-93307080D01*
X131318315Y-93307001D01*
X131338249Y-93307032D01*
X131357221Y-93307174D01*
X131374541Y-93307430D01*
X131389522Y-93307802D01*
X131401473Y-93308293D01*
X131409707Y-93308904D01*
X131413535Y-93309638D01*
X131413724Y-93309856D01*
X131415733Y-93312420D01*
X131416364Y-93312497D01*
X131417325Y-93309907D01*
X131418083Y-93302334D01*
X131418624Y-93290073D01*
X131418934Y-93273419D01*
X131419005Y-93258170D01*
X131419074Y-93239048D01*
X131419307Y-93224562D01*
X131419748Y-93214070D01*
X131420436Y-93206929D01*
X131421415Y-93202494D01*
X131422726Y-93200124D01*
X131422778Y-93200071D01*
X131424443Y-93199132D01*
X131427688Y-93198357D01*
X131432962Y-93197732D01*
X131440717Y-93197241D01*
X131451402Y-93196871D01*
X131465469Y-93196606D01*
X131483368Y-93196433D01*
X131505550Y-93196335D01*
X131532465Y-93196299D01*
X131538977Y-93196298D01*
X131651403Y-93196298D01*
X131651403Y-93143701D01*
X131651316Y-93124520D01*
X131651033Y-93110113D01*
X131650525Y-93099975D01*
X131649761Y-93093601D01*
X131648709Y-93090486D01*
X131648125Y-93090011D01*
X131646609Y-93088103D01*
X131649257Y-93084509D01*
X131651348Y-93083002D01*
X131654664Y-93081876D01*
X131659917Y-93081079D01*
X131667818Y-93080556D01*
X131679077Y-93080255D01*
X131694407Y-93080122D01*
X131707993Y-93080099D01*
X131762320Y-93080099D01*
X131762320Y-92966542D01*
X131762320Y-92852984D01*
X131817778Y-92852984D01*
X131836221Y-92852965D01*
X131850046Y-92852865D01*
X131859918Y-92852622D01*
X131866501Y-92852172D01*
X131870459Y-92851452D01*
X131872458Y-92850399D01*
X131873160Y-92848949D01*
X131873237Y-92847702D01*
X131874343Y-92843411D01*
X131875878Y-92842420D01*
X131876654Y-92839896D01*
X131877303Y-92832789D01*
X131877829Y-92821797D01*
X131878232Y-92807617D01*
X131878516Y-92790946D01*
X131878682Y-92772481D01*
X131878734Y-92752920D01*
X131878672Y-92732960D01*
X131878500Y-92713299D01*
X131878220Y-92694634D01*
X131877834Y-92677662D01*
X131877344Y-92663080D01*
X131876753Y-92651587D01*
X131876063Y-92643878D01*
X131875276Y-92640652D01*
X131875218Y-92640613D01*
X131873276Y-92638878D01*
X131875218Y-92637532D01*
X131877995Y-92633901D01*
X131878519Y-92630929D01*
X131878764Y-92629245D01*
X131879941Y-92627982D01*
X131882713Y-92627080D01*
X131887743Y-92626479D01*
X131895693Y-92626118D01*
X131907228Y-92625936D01*
X131923009Y-92625873D01*
X131933977Y-92625868D01*
X131989436Y-92625868D01*
X131989436Y-92456851D01*
X131989436Y-92287835D01*
X132047535Y-92287835D01*
X132105635Y-92287835D01*
X132105635Y-92456851D01*
G37*
G36*
X131651403Y-94491839D02*
G01*
X131651334Y-94510962D01*
X131651101Y-94525448D01*
X131650661Y-94535940D01*
X131649972Y-94543081D01*
X131648993Y-94547515D01*
X131647682Y-94549886D01*
X131647630Y-94549939D01*
X131645320Y-94551262D01*
X131640968Y-94552252D01*
X131633932Y-94552950D01*
X131623567Y-94553398D01*
X131609230Y-94553638D01*
X131590280Y-94553711D01*
X131589531Y-94553711D01*
X131535204Y-94553711D01*
X131535204Y-94495612D01*
X131535204Y-94437513D01*
X131593304Y-94437513D01*
X131651403Y-94437513D01*
X131651403Y-94491839D01*
G37*
G36*
X133346849Y-94051944D02*
G01*
X133346849Y-94110043D01*
X133288750Y-94110043D01*
X133230650Y-94110043D01*
X133230650Y-94051944D01*
X133230650Y-93993845D01*
X133288750Y-93993845D01*
X133346849Y-93993845D01*
X133346849Y-94051944D01*
G37*
G36*
X130727094Y-93803701D02*
G01*
X130727094Y-93861800D01*
X130668995Y-93861800D01*
X130610896Y-93861800D01*
X130610896Y-93803701D01*
X130610896Y-93745602D01*
X130668995Y-93745602D01*
X130727094Y-93745602D01*
X130727094Y-93803701D01*
G37*
G36*
X133304595Y-92985028D02*
G01*
X133304595Y-93043127D01*
X133246495Y-93043127D01*
X133188396Y-93043127D01*
X133188396Y-92985028D01*
X133188396Y-92926928D01*
X133246495Y-92926928D01*
X133304595Y-92926928D01*
X133304595Y-92985028D01*
G37*
G36*
X131339779Y-92889956D02*
G01*
X131339779Y-92948055D01*
X131281679Y-92948055D01*
X131223580Y-92948055D01*
X131223580Y-92889956D01*
X131223580Y-92831857D01*
X131281679Y-92831857D01*
X131339779Y-92831857D01*
X131339779Y-92889956D01*
G37*
G36*
X133051070Y-92235017D02*
G01*
X133051070Y-92287835D01*
X133103888Y-92287835D01*
X133156705Y-92287835D01*
X133156705Y-92339521D01*
X133156780Y-92358162D01*
X133157032Y-92372181D01*
X133157507Y-92382236D01*
X133158250Y-92388985D01*
X133159305Y-92393086D01*
X133160478Y-92394979D01*
X133162849Y-92396335D01*
X133167309Y-92397339D01*
X133174517Y-92398039D01*
X133185130Y-92398477D01*
X133199807Y-92398699D01*
X133215937Y-92398752D01*
X133267623Y-92398752D01*
X133267623Y-92451570D01*
X133267623Y-92504387D01*
X133212164Y-92504387D01*
X133156705Y-92504387D01*
X133156705Y-92559846D01*
X133156705Y-92615304D01*
X133103888Y-92615304D01*
X133051070Y-92615304D01*
X133051070Y-92668122D01*
X133051070Y-92720940D01*
X132995612Y-92720940D01*
X132940153Y-92720940D01*
X132940153Y-92668122D01*
X132940153Y-92615304D01*
X132887336Y-92615304D01*
X132834518Y-92615304D01*
X132834518Y-92559846D01*
X132834518Y-92504387D01*
X132781700Y-92504387D01*
X132728883Y-92504387D01*
X132728883Y-92451570D01*
X132839800Y-92451570D01*
X132839800Y-92504387D01*
X132892617Y-92504387D01*
X132945435Y-92504387D01*
X132945435Y-92557205D01*
X132945435Y-92610023D01*
X132995612Y-92610023D01*
X133045788Y-92610023D01*
X133045788Y-92557205D01*
X133045788Y-92504387D01*
X133101247Y-92504387D01*
X133156705Y-92504387D01*
X133156705Y-92451570D01*
X133156705Y-92398752D01*
X133101247Y-92398752D01*
X133045788Y-92398752D01*
X133045788Y-92345934D01*
X133045788Y-92293117D01*
X132995612Y-92293117D01*
X132945435Y-92293117D01*
X132945435Y-92345934D01*
X132945435Y-92398752D01*
X132892617Y-92398752D01*
X132839800Y-92398752D01*
X132839800Y-92451570D01*
X132728883Y-92451570D01*
X132728883Y-92398752D01*
X132781700Y-92398752D01*
X132834518Y-92398752D01*
X132834518Y-92343293D01*
X132834518Y-92287835D01*
X132887336Y-92287835D01*
X132940153Y-92287835D01*
X132940153Y-92235017D01*
X132940153Y-92182200D01*
X132995612Y-92182200D01*
X133051070Y-92182200D01*
X133051070Y-92235017D01*
G37*
G36*
X130922520Y-92398752D02*
G01*
X130922520Y-92456851D01*
X130980619Y-92456851D01*
X131038718Y-92456851D01*
X131038718Y-92514951D01*
X131038718Y-92573050D01*
X130980619Y-92573050D01*
X130922520Y-92573050D01*
X130922520Y-92628509D01*
X130922520Y-92683967D01*
X130864420Y-92683967D01*
X130806321Y-92683967D01*
X130806321Y-92628509D01*
X130806321Y-92573050D01*
X130750862Y-92573050D01*
X130695404Y-92573050D01*
X130695404Y-92567768D01*
X130811603Y-92567768D01*
X130864420Y-92567768D01*
X130917238Y-92567768D01*
X130917238Y-92514951D01*
X130917238Y-92462133D01*
X130864420Y-92462133D01*
X130811603Y-92462133D01*
X130811603Y-92514951D01*
X130811603Y-92567768D01*
X130695404Y-92567768D01*
X130695404Y-92514951D01*
X130695404Y-92456851D01*
X130750862Y-92456851D01*
X130806321Y-92456851D01*
X130806321Y-92402525D01*
X130806389Y-92383402D01*
X130806623Y-92368916D01*
X130807063Y-92358424D01*
X130807752Y-92351283D01*
X130808731Y-92346849D01*
X130810041Y-92344478D01*
X130810093Y-92344425D01*
X130812404Y-92343102D01*
X130816755Y-92342112D01*
X130823792Y-92341414D01*
X130834157Y-92340966D01*
X130848493Y-92340726D01*
X130867444Y-92340653D01*
X130868193Y-92340653D01*
X130922520Y-92340653D01*
X130922520Y-92398752D01*
G37*
G36*
X131466046Y-92298467D02*
G01*
X131480532Y-92298700D01*
X131491024Y-92299141D01*
X131498165Y-92299829D01*
X131502599Y-92300808D01*
X131504970Y-92302119D01*
X131505023Y-92302171D01*
X131506346Y-92304481D01*
X131507336Y-92308833D01*
X131508034Y-92315870D01*
X131508482Y-92326235D01*
X131508722Y-92340571D01*
X131508795Y-92359522D01*
X131508795Y-92360271D01*
X131508795Y-92414597D01*
X131450696Y-92414597D01*
X131392597Y-92414597D01*
X131392597Y-92356498D01*
X131392597Y-92298398D01*
X131446923Y-92298398D01*
X131466046Y-92298467D01*
G37*
G36*
X132105635Y-92118819D02*
G01*
X132105635Y-92176918D01*
X132047535Y-92176918D01*
X131989436Y-92176918D01*
X131989436Y-92118819D01*
X131989436Y-92060719D01*
X132047535Y-92060719D01*
X132105635Y-92060719D01*
X132105635Y-92118819D01*
G37*
G36*
X130822089Y-94539876D02*
G01*
X130822166Y-94540507D01*
X130820156Y-94543071D01*
X130819525Y-94543148D01*
X130816961Y-94541138D01*
X130816884Y-94540507D01*
X130818894Y-94537943D01*
X130819525Y-94537866D01*
X130822089Y-94539876D01*
G37*
G36*
X132105635Y-93085381D02*
G01*
X132105635Y-93201580D01*
X132050176Y-93201580D01*
X131994718Y-93201580D01*
X131994718Y-93257039D01*
X131994718Y-93312497D01*
X131936618Y-93312497D01*
X131878519Y-93312497D01*
X131878519Y-93370596D01*
X131878519Y-93428696D01*
X131823060Y-93428696D01*
X131767602Y-93428696D01*
X131767602Y-93484154D01*
X131767602Y-93539613D01*
X131651403Y-93539613D01*
X131535204Y-93539613D01*
X131535204Y-93481513D01*
X131535204Y-93423414D01*
X131648762Y-93423414D01*
X131762320Y-93423414D01*
X131762320Y-93365315D01*
X131762320Y-93307215D01*
X131817778Y-93307215D01*
X131873237Y-93307215D01*
X131873237Y-93251757D01*
X131873237Y-93196298D01*
X131931336Y-93196298D01*
X131989436Y-93196298D01*
X131989436Y-93082740D01*
X131989436Y-92969182D01*
X132047535Y-92969182D01*
X132105635Y-92969182D01*
X132105635Y-93085381D01*
G37*
%TD*%
D11*
%TO.C,D1*%
X139000000Y-105927500D03*
X139000000Y-107072500D03*
%TD*%
D12*
%TO.C,H1*%
X135500000Y-86000000D03*
%TD*%
D13*
%TO.C,R1*%
X133500000Y-111825000D03*
X133500000Y-110175000D03*
%TD*%
M02*
